<?xml version="1.0" encoding="UTF-8"?>
<svg id="Layer_1" data-name="Layer 1" xmlns="http://www.w3.org/2000/svg" viewBox="0 0 511.1114 511.0968">
  <defs>
    <style>
      .cls-1 {
        stroke: #ed2024;
      }

      .cls-1, .cls-2 {
        fill: none;
        stroke-linecap: round;
        stroke-linejoin: round;
        stroke-width: .7087px;
      }

      .cls-2 {
        stroke: #000;
      }
    </style>
  </defs>
  <g id="CIRCLE">
    <circle class="cls-2" cx="255.5282" cy="255.8847" r="51.048"/>
  </g>
  <g id="SPLINE">
    <path class="cls-2" d="m428.8406.3543l-346.6112.0274C37.0319.3935.3888,37.0184.3543,82.2158l.0274,346.6102c.0118,45.1975,36.6366,81.8406,81.8341,81.8751l346.6112-.0274c45.1975-.0118,81.8406-36.6366,81.8751-81.8341l-.0274-346.6102c-.0118-45.1975-36.6366-81.8406-81.8341-81.8751Z"/>
  </g>
  <g id="CIRCLE-2" data-name="CIRCLE">
    <circle class="cls-2" cx="255.5282" cy="255.8847" r="51.048"/>
  </g>
  <g id="SPLINE-2" data-name="SPLINE">
    <path class="cls-2" d="m428.8406.3543l-346.6112.0274C37.0319.3935.3888,37.0184.3543,82.2158l.0274,346.6102c.0118,45.1975,36.6366,81.8406,81.8341,81.8751l346.6112-.0274c45.1975-.0118,81.8406-36.6366,81.8751-81.8341l-.0274-346.6102c-.0118-45.1975-36.6366-81.8406-81.8341-81.8751Z"/>
  </g>
  <g id="LINE">
    <line class="cls-1" x1=".3543" y1=".3544" x2="510.7021" y2=".3544"/>
  </g>
  <g id="LINE-2" data-name="LINE">
    <line class="cls-1" x1=".3543" y1="9.396" x2="510.7021" y2="9.396"/>
  </g>
  <g id="LINE-3" data-name="LINE">
    <line class="cls-1" x1=".3543" y1="18.4376" x2="510.7021" y2="18.4376"/>
  </g>
  <g id="LINE-4" data-name="LINE">
    <line class="cls-1" x1=".3543" y1="27.4792" x2="510.7021" y2="27.4792"/>
  </g>
  <g id="LINE-5" data-name="LINE">
    <line class="cls-1" x1=".3543" y1="36.2235" x2="510.7021" y2="36.2235"/>
  </g>
  <g id="LINE-6" data-name="LINE">
    <line class="cls-1" x1=".3543" y1="45.2651" x2="510.7021" y2="45.2651"/>
  </g>
  <g id="LINE-7" data-name="LINE">
    <line class="cls-1" x1=".3543" y1="54.3067" x2="510.7021" y2="54.3067"/>
  </g>
  <g id="LINE-8" data-name="LINE">
    <line class="cls-1" x1=".3543" y1="63.3483" x2="510.7021" y2="63.3483"/>
  </g>
  <g id="LINE-9" data-name="LINE">
    <line class="cls-1" x1=".3543" y1="72.074" x2="510.7021" y2="72.074"/>
  </g>
  <g id="LINE-10" data-name="LINE">
    <line class="cls-1" x1=".3543" y1="81.1157" x2="510.7021" y2="81.1157"/>
  </g>
  <g id="LINE-11" data-name="LINE">
    <line class="cls-1" x1=".3543" y1="90.1573" x2="510.7021" y2="90.1573"/>
  </g>
  <g id="LINE-12" data-name="LINE">
    <line class="cls-1" x1=".3543" y1="99.1989" x2="510.7021" y2="99.1989"/>
  </g>
  <g id="LINE-13" data-name="LINE">
    <line class="cls-1" x1=".3543" y1="107.9431" x2="510.7021" y2="107.9431"/>
  </g>
  <g id="LINE-14" data-name="LINE">
    <line class="cls-1" x1=".3543" y1="116.9848" x2="510.7021" y2="116.9848"/>
  </g>
  <g id="LINE-15" data-name="LINE">
    <line class="cls-1" x1=".3543" y1="126.0264" x2="510.7021" y2="126.0264"/>
  </g>
  <g id="LINE-16" data-name="LINE">
    <line class="cls-1" x1=".3543" y1="135.068" x2="510.7021" y2="135.068"/>
  </g>
  <g id="LINE-17" data-name="LINE">
    <line class="cls-1" x1=".3543" y1="144.1096" x2="510.7021" y2="144.1096"/>
  </g>
  <g id="LINE-18" data-name="LINE">
    <line class="cls-1" x1=".3543" y1="153.1512" x2="510.7021" y2="153.1512"/>
  </g>
  <g id="LINE-19" data-name="LINE">
    <line class="cls-1" x1=".3543" y1="162.1928" x2="510.7021" y2="162.1928"/>
  </g>
  <g id="LINE-20" data-name="LINE">
    <line class="cls-1" x1=".3543" y1="171.2344" x2="510.7021" y2="171.2344"/>
  </g>
  <g id="LINE-21" data-name="LINE">
    <line class="cls-1" x1=".3543" y1="179.9787" x2="510.7021" y2="179.9787"/>
  </g>
  <g id="LINE-22" data-name="LINE">
    <line class="cls-1" x1=".3543" y1="189.0203" x2="510.7021" y2="189.0203"/>
  </g>
  <g id="LINE-23" data-name="LINE">
    <line class="cls-1" x1=".3543" y1="198.0619" x2="510.7021" y2="198.0619"/>
  </g>
  <g id="LINE-24" data-name="LINE">
    <line class="cls-1" x1=".3543" y1="207.1035" x2="510.7021" y2="207.1035"/>
  </g>
  <g id="LINE-25" data-name="LINE">
    <line class="cls-1" x1=".3543" y1="215.8292" x2="510.7021" y2="215.8292"/>
  </g>
  <g id="LINE-26" data-name="LINE">
    <line class="cls-1" x1=".3543" y1="224.8708" x2="510.7021" y2="224.8708"/>
  </g>
  <g id="LINE-27" data-name="LINE">
    <line class="cls-1" x1=".3543" y1="233.9124" x2="510.7021" y2="233.9124"/>
  </g>
  <g id="LINE-28" data-name="LINE">
    <line class="cls-1" x1=".3543" y1="242.954" x2="510.7021" y2="242.954"/>
  </g>
  <g id="LINE-29" data-name="LINE">
    <line class="cls-1" x1=".3543" y1="251.6983" x2="510.7021" y2="251.6983"/>
  </g>
  <g id="LINE-30" data-name="LINE">
    <line class="cls-1" x1=".3543" y1="260.7399" x2="510.7021" y2="260.7399"/>
  </g>
  <g id="LINE-31" data-name="LINE">
    <line class="cls-1" x1=".3543" y1="269.7815" x2="510.7021" y2="269.7815"/>
  </g>
  <g id="LINE-32" data-name="LINE">
    <line class="cls-1" x1=".3543" y1="278.8231" x2="510.7021" y2="278.8231"/>
  </g>
  <g id="LINE-33" data-name="LINE">
    <line class="cls-1" x1=".3543" y1="287.8647" x2="510.7021" y2="287.8647"/>
  </g>
  <g id="LINE-34" data-name="LINE">
    <line class="cls-1" x1=".3543" y1="296.9064" x2="510.7021" y2="296.9064"/>
  </g>
  <g id="LINE-35" data-name="LINE">
    <line class="cls-1" x1=".3543" y1="305.948" x2="510.7021" y2="305.948"/>
  </g>
  <g id="LINE-36" data-name="LINE">
    <line class="cls-1" x1=".3543" y1="314.9896" x2="510.7021" y2="314.9896"/>
  </g>
  <g id="LINE-37" data-name="LINE">
    <line class="cls-1" x1=".3543" y1="323.7338" x2="510.7021" y2="323.7338"/>
  </g>
  <g id="LINE-38" data-name="LINE">
    <line class="cls-1" x1=".3543" y1="332.7755" x2="510.7021" y2="332.7755"/>
  </g>
  <g id="LINE-39" data-name="LINE">
    <line class="cls-1" x1=".3543" y1="341.8171" x2="510.7021" y2="341.8171"/>
  </g>
  <g id="LINE-40" data-name="LINE">
    <line class="cls-1" x1=".3543" y1="350.8587" x2="510.7021" y2="350.8587"/>
  </g>
  <g id="LINE-41" data-name="LINE">
    <line class="cls-1" x1=".3543" y1="359.5844" x2="510.7021" y2="359.5844"/>
  </g>
  <g id="LINE-42" data-name="LINE">
    <line class="cls-1" x1=".3543" y1="368.626" x2="510.7021" y2="368.626"/>
  </g>
  <g id="LINE-43" data-name="LINE">
    <line class="cls-1" x1=".3543" y1="377.6676" x2="510.7021" y2="377.6676"/>
  </g>
  <g id="LINE-44" data-name="LINE">
    <line class="cls-1" x1=".3543" y1="386.7092" x2="510.7021" y2="386.7092"/>
  </g>
  <g id="LINE-45" data-name="LINE">
    <line class="cls-1" x1=".3543" y1="395.4535" x2="510.7021" y2="395.4535"/>
  </g>
  <g id="LINE-46" data-name="LINE">
    <line class="cls-1" x1=".3543" y1="404.4951" x2="510.7021" y2="404.4951"/>
  </g>
  <g id="LINE-47" data-name="LINE">
    <line class="cls-1" x1=".3543" y1="413.5367" x2="510.7021" y2="413.5367"/>
  </g>
  <g id="LINE-48" data-name="LINE">
    <line class="cls-1" x1=".3543" y1="422.5783" x2="510.7021" y2="422.5783"/>
  </g>
  <g id="LINE-49" data-name="LINE">
    <line class="cls-1" x1=".3543" y1="431.6199" x2="510.7021" y2="431.6199"/>
  </g>
  <g id="LINE-50" data-name="LINE">
    <line class="cls-1" x1=".3543" y1="440.6615" x2="510.7021" y2="440.6615"/>
  </g>
  <g id="LINE-51" data-name="LINE">
    <line class="cls-1" x1=".3543" y1="449.7031" x2="510.7021" y2="449.7031"/>
  </g>
  <g id="LINE-52" data-name="LINE">
    <line class="cls-1" x1=".3543" y1="458.7447" x2="510.7021" y2="458.7447"/>
  </g>
  <g id="LINE-53" data-name="LINE">
    <line class="cls-1" x1=".3543" y1="467.489" x2="510.7021" y2="467.489"/>
  </g>
  <g id="LINE-54" data-name="LINE">
    <line class="cls-1" x1=".3543" y1="476.5306" x2="510.7021" y2="476.5306"/>
  </g>
  <g id="LINE-55" data-name="LINE">
    <line class="cls-1" x1=".3543" y1="485.5722" x2="510.7021" y2="485.5722"/>
  </g>
  <g id="LINE-56" data-name="LINE">
    <line class="cls-1" x1=".3543" y1="494.6138" x2="510.7021" y2="494.6138"/>
  </g>
  <g id="LINE-57" data-name="LINE">
    <line class="cls-1" x1=".3543" y1="503.3396" x2="510.7021" y2="503.3396"/>
  </g>
  <g id="LINE-58" data-name="LINE">
    <line class="cls-1" x1=".3543" y1="510.3812" x2="510.7021" y2="510.3812"/>
  </g>
  <g id="LINE-59" data-name="LINE">
    <line class="cls-1" x1=".3544" y1="510.7021" x2=".3543" y2=".3544"/>
  </g>
  <g id="LINE-60" data-name="LINE">
    <line class="cls-1" x1="9.396" y1="510.7021" x2="9.3959" y2=".3544"/>
  </g>
  <g id="LINE-61" data-name="LINE">
    <line class="cls-1" x1="18.4376" y1="510.7021" x2="18.4375" y2=".3544"/>
  </g>
  <g id="LINE-62" data-name="LINE">
    <line class="cls-1" x1="27.4792" y1="510.7021" x2="27.4791" y2=".3544"/>
  </g>
  <g id="LINE-63" data-name="LINE">
    <line class="cls-1" x1="36.2235" y1="510.7021" x2="36.2234" y2=".3544"/>
  </g>
  <g id="LINE-64" data-name="LINE">
    <line class="cls-1" x1="45.2651" y1="510.7021" x2="45.265" y2=".3544"/>
  </g>
  <g id="LINE-65" data-name="LINE">
    <line class="cls-1" x1="54.3067" y1="510.7021" x2="54.3066" y2=".3544"/>
  </g>
  <g id="LINE-66" data-name="LINE">
    <line class="cls-1" x1="63.3483" y1="510.7021" x2="63.3483" y2=".3544"/>
  </g>
  <g id="LINE-67" data-name="LINE">
    <line class="cls-1" x1="72.074" y1="510.7021" x2="72.074" y2=".3544"/>
  </g>
  <g id="LINE-68" data-name="LINE">
    <line class="cls-1" x1="81.1157" y1="510.7021" x2="81.1156" y2=".3544"/>
  </g>
  <g id="LINE-69" data-name="LINE">
    <line class="cls-1" x1="90.1573" y1="510.7021" x2="90.1572" y2=".3544"/>
  </g>
  <g id="LINE-70" data-name="LINE">
    <line class="cls-1" x1="99.1989" y1="510.7021" x2="99.1988" y2=".3544"/>
  </g>
  <g id="LINE-71" data-name="LINE">
    <line class="cls-1" x1="107.9431" y1="510.7021" x2="107.9431" y2=".3544"/>
  </g>
  <g id="LINE-72" data-name="LINE">
    <line class="cls-1" x1="116.9848" y1="510.7021" x2="116.9847" y2=".3544"/>
  </g>
  <g id="LINE-73" data-name="LINE">
    <line class="cls-1" x1="126.0264" y1="510.7021" x2="126.0263" y2=".3544"/>
  </g>
  <g id="LINE-74" data-name="LINE">
    <line class="cls-1" x1="135.068" y1="510.7021" x2="135.0679" y2=".3544"/>
  </g>
  <g id="LINE-75" data-name="LINE">
    <line class="cls-1" x1="144.1096" y1="510.7021" x2="144.1095" y2=".3544"/>
  </g>
  <g id="LINE-76" data-name="LINE">
    <line class="cls-1" x1="153.1512" y1="510.7021" x2="153.1511" y2=".3544"/>
  </g>
  <g id="LINE-77" data-name="LINE">
    <line class="cls-1" x1="162.1928" y1="510.7021" x2="162.1927" y2=".3544"/>
  </g>
  <g id="LINE-78" data-name="LINE">
    <line class="cls-1" x1="171.2344" y1="510.7021" x2="171.2343" y2=".3544"/>
  </g>
  <g id="LINE-79" data-name="LINE">
    <line class="cls-1" x1="179.9787" y1="510.7021" x2="179.9786" y2=".3544"/>
  </g>
  <g id="LINE-80" data-name="LINE">
    <line class="cls-1" x1="189.0203" y1="510.7021" x2="189.0202" y2=".3544"/>
  </g>
  <g id="LINE-81" data-name="LINE">
    <line class="cls-1" x1="198.0619" y1="510.7021" x2="198.0618" y2=".3544"/>
  </g>
  <g id="LINE-82" data-name="LINE">
    <line class="cls-1" x1="207.1035" y1="510.7021" x2="207.1034" y2=".3544"/>
  </g>
  <g id="LINE-83" data-name="LINE">
    <line class="cls-1" x1="215.8292" y1="510.7021" x2="215.8291" y2=".3544"/>
  </g>
  <g id="LINE-84" data-name="LINE">
    <line class="cls-1" x1="224.8708" y1="510.7021" x2="224.8707" y2=".3544"/>
  </g>
  <g id="LINE-85" data-name="LINE">
    <line class="cls-1" x1="233.9124" y1="510.7021" x2="233.9124" y2=".3544"/>
  </g>
  <g id="LINE-86" data-name="LINE">
    <line class="cls-1" x1="242.954" y1="510.7021" x2="242.954" y2=".3544"/>
  </g>
  <g id="LINE-87" data-name="LINE">
    <line class="cls-1" x1="251.6983" y1="510.7021" x2="251.6982" y2=".3544"/>
  </g>
  <g id="LINE-88" data-name="LINE">
    <line class="cls-1" x1="260.7399" y1="510.7021" x2="260.7399" y2=".3544"/>
  </g>
  <g id="LINE-89" data-name="LINE">
    <line class="cls-1" x1="269.7815" y1="510.7021" x2="269.7815" y2=".3544"/>
  </g>
  <g id="LINE-90" data-name="LINE">
    <line class="cls-1" x1="278.8231" y1="510.7021" x2="278.8231" y2=".3544"/>
  </g>
  <g id="LINE-91" data-name="LINE">
    <line class="cls-1" x1="287.8647" y1="510.7021" x2="287.8647" y2=".3544"/>
  </g>
  <g id="LINE-92" data-name="LINE">
    <line class="cls-1" x1="296.9063" y1="510.7021" x2="296.9063" y2=".3544"/>
  </g>
  <g id="LINE-93" data-name="LINE">
    <line class="cls-1" x1="305.948" y1="510.7021" x2="305.9479" y2=".3544"/>
  </g>
  <g id="LINE-94" data-name="LINE">
    <line class="cls-1" x1="314.9896" y1="510.7021" x2="314.9895" y2=".3544"/>
  </g>
  <g id="LINE-95" data-name="LINE">
    <line class="cls-1" x1="323.7338" y1="510.7021" x2="323.7338" y2=".3544"/>
  </g>
  <g id="LINE-96" data-name="LINE">
    <line class="cls-1" x1="332.7755" y1="510.7021" x2="332.7754" y2=".3544"/>
  </g>
  <g id="LINE-97" data-name="LINE">
    <line class="cls-1" x1="341.8171" y1="510.7021" x2="341.817" y2=".3544"/>
  </g>
  <g id="LINE-98" data-name="LINE">
    <line class="cls-1" x1="350.8587" y1="510.7021" x2="350.8586" y2=".3544"/>
  </g>
  <g id="LINE-99" data-name="LINE">
    <line class="cls-1" x1="359.5844" y1="510.7021" x2="359.5843" y2=".3544"/>
  </g>
  <g id="LINE-100" data-name="LINE">
    <line class="cls-1" x1="368.626" y1="510.7021" x2="368.6259" y2=".3544"/>
  </g>
  <g id="LINE-101" data-name="LINE">
    <line class="cls-1" x1="377.6676" y1="510.7021" x2="377.6675" y2=".3544"/>
  </g>
  <g id="LINE-102" data-name="LINE">
    <line class="cls-1" x1="386.7092" y1="510.7021" x2="386.7091" y2=".3543"/>
  </g>
  <g id="LINE-103" data-name="LINE">
    <line class="cls-1" x1="395.4535" y1="510.7021" x2="395.4534" y2=".3543"/>
  </g>
  <g id="LINE-104" data-name="LINE">
    <line class="cls-1" x1="404.4951" y1="510.7021" x2="404.495" y2=".3543"/>
  </g>
  <g id="LINE-105" data-name="LINE">
    <line class="cls-1" x1="413.5367" y1="510.7021" x2="413.5366" y2=".3543"/>
  </g>
  <g id="LINE-106" data-name="LINE">
    <line class="cls-1" x1="422.5783" y1="510.7021" x2="422.5782" y2=".3543"/>
  </g>
  <g id="LINE-107" data-name="LINE">
    <line class="cls-1" x1="431.6199" y1="510.7021" x2="431.6198" y2=".3543"/>
  </g>
  <g id="LINE-108" data-name="LINE">
    <line class="cls-1" x1="440.6615" y1="510.7021" x2="440.6614" y2=".3543"/>
  </g>
  <g id="LINE-109" data-name="LINE">
    <line class="cls-1" x1="449.7031" y1="510.7021" x2="449.7031" y2=".3543"/>
  </g>
  <g id="LINE-110" data-name="LINE">
    <line class="cls-1" x1="458.7447" y1="510.7021" x2="458.7447" y2=".3543"/>
  </g>
  <g id="LINE-111" data-name="LINE">
    <line class="cls-1" x1="467.489" y1="510.7021" x2="467.4889" y2=".3543"/>
  </g>
  <g id="LINE-112" data-name="LINE">
    <line class="cls-1" x1="476.5306" y1="510.7021" x2="476.5306" y2=".3543"/>
  </g>
  <g id="LINE-113" data-name="LINE">
    <line class="cls-1" x1="485.5722" y1="510.7021" x2="485.5722" y2=".3543"/>
  </g>
  <g id="LINE-114" data-name="LINE">
    <line class="cls-1" x1="494.6138" y1="510.7021" x2="494.6138" y2=".3543"/>
  </g>
  <g id="LINE-115" data-name="LINE">
    <line class="cls-1" x1="503.3396" y1="510.7021" x2="503.3395" y2=".3543"/>
  </g>
  <g id="LINE-116" data-name="LINE">
    <line class="cls-1" x1="510.757" y1="510.7425" x2="510.757" y2=".3948"/>
  </g>
</svg>