<?xml version="1.0" encoding="utf-8"?>
<!-- Generator: Adobe Illustrator 27.5.0, SVG Export Plug-In . SVG Version: 6.00 Build 0)  -->
<svg version="1.1" id="_0" xmlns="http://www.w3.org/2000/svg" xmlns:xlink="http://www.w3.org/1999/xlink" x="0px" y="0px"
	 viewBox="0 0 518.3 513.8" style="enable-background:new 0 0 518.3 513.8;" xml:space="preserve">
<style type="text/css">
	.st0{fill:none;stroke:#000000;stroke-width:0.7087;stroke-linecap:round;stroke-linejoin:round;}
</style>
<path class="st0" d="M87.4,513.4c-48,0-87-38.9-87-86.6L0.4,87c0-47.7,39.1-86.6,87.1-86.6l343.4,0c48,0,87.1,38.9,87.1,86.6
	l0,339.7c0,23.1-9.1,44.9-25.5,61.3c-16.4,16.4-38.3,25.4-61.6,25.4L87.4,513.4L87.4,513.4L87.4,513.4z"/>
<g id="CIRCLE">
	<circle class="st0" cx="222.1" cy="73.2" r="6"/>
</g>
<g id="CIRCLE-2">
	<circle class="st0" cx="222" cy="122.6" r="6"/>
</g>
<g id="CIRCLE-3">
	<circle class="st0" cx="294" cy="122.6" r="6"/>
</g>
<g id="CIRCLE-4">
	<circle class="st0" cx="294.1" cy="73.1" r="6"/>
</g>
<circle class="st0" cx="258.1" cy="256.5" r="82.9"/>
</svg>
