0
SECTION
2
HEADER
9
$INSUNITS
70
4
9
$ACADVER
1
AC1014
9
$HANDSEED
5
FFFF
0
ENDSEC
0
SECTION
2
TABLES
0
TABLE
2
VPORT
5
8
100
AcDbSymbolTable
0
ENDTAB
0
TABLE
2
LTYPE
5
5
100
AcDbSymbolTable
0
LTYPE
5
14
100
AcDbSymbolTableRecord
100
AcDbLinetypeTableRecord
2
BYBLOCK
70
0
0
LTYPE
5
15
100
AcDbSymbolTableRecord
100
AcDbLinetypeTableRecord
2
BYLAYER
70
0
0
ENDTAB
0
TABLE
2
LAYER
5
2
100
AcDbSymbolTable
70
2
0
LAYER
5
50
100
AcDbSymbolTableRecord
100
AcDbLayerTableRecord
2
0
70
0
6
CONTINUOUS
0
ENDTAB
0
TABLE
2
STYLE
5
3
100
AcDbSymbolTable
70
1
0
STYLE
5
11
100
AcDbSymbolTableRecord
100
AcDbTextStyleTableRecord
2
STANDARD
70
0
0
ENDTAB
0
TABLE
2
VIEW
5
6
100
AcDbSymbolTable
70
0
0
ENDTAB
0
TABLE
2
UCS
5
7
100
AcDbSymbolTable
70
0
0
ENDTAB
0
TABLE
2
APPID
5
9
100
AcDbSymbolTable
70
2
0
APPID
5
12
100
AcDbSymbolTableRecord
100
AcDbRegAppTableRecord
2
ACAD
70
0
0
ENDTAB
0
TABLE
2
DIMSTYLE
5
A
100
AcDbSymbolTable
70
1
0
ENDTAB
0
TABLE
2
BLOCK_RECORD
5
1
100
AcDbSymbolTable
70
1
0
BLOCK_RECORD
5
1F
100
AcDbSymbolTableRecord
100
AcDbBlockTableRecord
2
*MODEL_SPACE
0
BLOCK_RECORD
5
1B
100
AcDbSymbolTableRecord
100
AcDbBlockTableRecord
2
*PAPER_SPACE
0
ENDTAB
0
ENDSEC
0
SECTION
2
BLOCKS
0
BLOCK
5
20
100
AcDbEntity
100
AcDbBlockBegin
2
*MODEL_SPACE
0
ENDBLK
5
21
100
AcDbEntity
100
AcDbBlockEnd
0
BLOCK
5
1C
100
AcDbEntity
100
AcDbBlockBegin
2
*PAPER_SPACE
0
ENDBLK
5
1D
100
AcDbEntity
100
AcDbBlockEnd
0
ENDSEC
0
SECTION
2
ENTITIES
0
LWPOLYLINE
5
100
100
AcDbEntity
8
0
100
AcDbPolyline
90
4
70
1
43
0.0
10
-266.14792425328829
20
62.454894783361752
10
-264.64792425328829
20
62.454894783361752
10
-264.64792425328829
20
27.454894783361752
10
-266.14792425328829
20
27.454894783361752
0
LWPOLYLINE
5
101
100
AcDbEntity
8
0
100
AcDbPolyline
90
4
70
1
43
0.0
10
-286.14792425328829
20
27.454894783361748
10
-286.14792425328829
20
62.454894783361752
10
-284.64792425328829
20
62.454894783361752
10
-284.64792425328829
20
27.454894783361752
0
LWPOLYLINE
5
102
100
AcDbEntity
8
0
100
AcDbPolyline
90
4
70
1
43
0.0
10
-234.64792425328829
20
62.454894783361752
10
-234.64792425328829
20
27.454894783361752
10
-236.14792425328829
20
27.454894783361752
10
-236.14792425328829
20
62.454894783361752
0
LWPOLYLINE
5
103
100
AcDbEntity
8
0
100
AcDbPolyline
90
4
70
1
43
0.0
10
-256.14792425328829
20
27.454894783361752
10
-256.14792425328829
20
62.454894783361752
10
-254.64792425328829
20
62.454894783361752
10
-254.64792425328829
20
27.454894783361752
0
LWPOLYLINE
5
104
100
AcDbEntity
8
0
100
AcDbPolyline
90
4
70
1
43
0.0
10
-226.14792425328829
20
62.454894783361752
10
-224.64792425328829
20
62.454894783361752
10
-224.64792425328829
20
27.454894783361752
10
-226.14792425328829
20
27.454894783361752
0
LWPOLYLINE
5
105
100
AcDbEntity
8
0
100
AcDbPolyline
90
4
70
1
43
0.0
10
-274.64792425328829
20
62.454894783361752
10
-274.64792425328829
20
27.454894783361752
10
-276.14792425328829
20
27.454894783361748
10
-276.14792425328829
20
62.454894783361752
0
LWPOLYLINE
5
106
100
AcDbEntity
8
0
100
AcDbPolyline
90
4
70
1
43
0.0
10
-206.14792425328829
20
27.454894783361755
10
-206.14792425328829
20
62.454894783361752
10
-204.64792425328829
20
62.454894783361752
10
-204.64792425328829
20
27.454894783361752
0
LWPOLYLINE
5
107
100
AcDbEntity
8
0
100
AcDbPolyline
90
4
70
1
43
0.0
10
-214.64792425328829
20
27.454894783361752
10
-216.14792425328829
20
27.454894783361752
10
-216.14792425328829
20
62.454894783361752
10
-214.64792425328829
20
62.454894783361752
0
LWPOLYLINE
5
108
100
AcDbEntity
8
0
100
AcDbPolyline
90
4
70
1
43
0.0
10
-304.64792425328829
20
27.454894783361748
10
-306.14792425328829
20
27.454894783361748
10
-306.14792425328829
20
62.454894783361752
10
-304.64792425328829
20
62.454894783361745
0
LWPOLYLINE
5
109
100
AcDbEntity
8
0
100
AcDbPolyline
90
4
70
1
43
0.0
10
-294.64792425328829
20
62.454894783361752
10
-294.64792425328829
20
27.454894783361752
10
-296.14792425328829
20
27.454894783361748
10
-296.14792425328829
20
62.454894783361752
0
LWPOLYLINE
5
110
100
AcDbEntity
8
0
100
AcDbPolyline
90
4
70
1
43
0.0
10
-244.64792425328829
20
27.454894783361752
10
-246.14792425328829
20
27.454894783361752
10
-246.14792425328829
20
62.454894783361752
10
-244.64792425328829
20
62.454894783361752
0
LWPOLYLINE
5
111
100
AcDbEntity
8
0
100
AcDbPolyline
90
12
70
1
43
0.0
10
-318.04600935132942
20
69.947552033741275
10
-318.04600935132942
20
19.499999552965079
10
-305.64792425328835
20
19.499999552965082
10
-305.64792425328835
20
22.307360151858905
10
-297.07718835433701
20
22.307360151858905
10
-297.07718835433701
20
19.499999552965082
10
-213.41291495204271
20
19.49999955296509
10
-213.41291495204271
20
22.307360151858909
10
-204.84217905309137
20
22.307360151858909
10
-204.84217905309137
20
19.49999955296509
10
-192.44409395505031
20
19.49999955296509
10
-192.44409395505031
20
69.947552033741289
0
ENDSEC
0
SECTION
2
OBJECTS
0
DICTIONARY
5
C
100
AcDbDictionary
3
ACAD_GROUP
350
D
3
ACAD_MLINESTYLE
350
17
0
DICTIONARY
5
D
100
AcDbDictionary
0
DICTIONARY
5
1A
330
C
100
AcDbDictionary
0
DICTIONARY
5
17
100
AcDbDictionary
0
ENDSEC
0
EOF
