<?xml version="1.0" encoding="utf-8"?>
<!-- Generator: Adobe Illustrator 27.5.0, SVG Export Plug-In . SVG Version: 6.00 Build 0)  -->
<svg version="1.1" id="_x30_" xmlns="http://www.w3.org/2000/svg" xmlns:xlink="http://www.w3.org/1999/xlink" x="0px" y="0px"
	 viewBox="0 0 612 792" style="enable-background:new 0 0 612 792;" xml:space="preserve">
<style type="text/css">
	.st0{fill:none;stroke:#000000;stroke-width:0.7087;stroke-linecap:round;stroke-linejoin:round;stroke-miterlimit:10;}
</style>
<g id="LWPOLYLINE">
	<rect x="275.6" y="345.7" class="st0" width="4.3" height="99.2"/>
</g>
<g id="LWPOLYLINE_00000065051731510413541490000008097633209992870275_">
	<rect x="218.9" y="345.7" class="st0" width="4.3" height="99.2"/>
</g>
<g id="LWPOLYLINE_00000043458451919302092730000006824597619836814766_">
	<rect x="360.6" y="345.7" class="st0" width="4.3" height="99.2"/>
</g>
<g id="LWPOLYLINE_00000065766436754100419520000002938777493220236456_">
	<rect x="303.9" y="345.7" class="st0" width="4.3" height="99.2"/>
</g>
<g id="LWPOLYLINE_00000115509322320730419300000001636254297100454274_">
	<rect x="389" y="345.7" class="st0" width="4.3" height="99.2"/>
</g>
<g id="LWPOLYLINE_00000033357953826286837740000014800311118706599599_">
	<rect x="247.2" y="345.7" class="st0" width="4.3" height="99.2"/>
</g>
<g id="LWPOLYLINE_00000148662091531092755210000014207867957440788631_">
	<rect x="445.7" y="345.7" class="st0" width="4.3" height="99.2"/>
</g>
<g id="LWPOLYLINE_00000155838693988824640010000017563779747475956137_">
	<rect x="417.3" y="345.7" class="st0" width="4.3" height="99.2"/>
</g>
<g id="LWPOLYLINE_00000131332277331995342540000001836813522719234975_">
	<rect x="162.2" y="345.7" class="st0" width="4.3" height="99.2"/>
</g>
<g id="LWPOLYLINE_00000023962061082805289820000013673176825702276528_">
	<rect x="190.6" y="345.7" class="st0" width="4.3" height="99.2"/>
</g>
<g id="LWPOLYLINE_00000134932514729031440310000009072355119416685480_">
	<rect x="332.3" y="345.7" class="st0" width="4.3" height="99.2"/>
</g>
<g id="LWPOLYLINE_00000005962770681724368200000011926043745626288041_">
	<polygon class="st0" points="128.5,324.5 128.5,467.5 163.6,467.5 163.6,459.5 187.9,459.5 187.9,467.5 425.1,467.5 425.1,459.5 
		449.4,459.5 449.4,467.5 484.5,467.5 484.5,324.5 	"/>
</g>
</svg>
