<?xml version="1.0" encoding="UTF-8"?>
<svg id="_0" data-name="0" xmlns="http://www.w3.org/2000/svg" viewBox="0 0 434.749 220.1345">
  <defs>
    <style>
      .cls-1 {
        fill: none;
        stroke: #000;
        stroke-linecap: round;
        stroke-linejoin: round;
        stroke-width: .7087px;
      }
    </style>
  </defs>
  <g id="CIRCLE">
    <circle class="cls-1" cx="12.0993" cy="110.0672" r="8.5039"/>
  </g>
  <g id="CIRCLE-2" data-name="CIRCLE">
    <circle class="cls-1" cx="422.6498" cy="110.0672" r="8.5039"/>
  </g>
  <g id="LWPOLYLINE">
    <path class="cls-1" d="m405.751,219.7802c1.6745-.0808,3.3394-.3014,4.9772-.6595l4.2169-1.251c2.4392-.9224,4.7482-2.158,6.869-3.6756l6.9596-6.9596c3.6555-5.1082,5.6211-11.2322,5.6211-17.5137V30.4137c0-6.2814-1.9655-12.4055-5.6211-17.5137l-6.9596-6.9596c-2.1207-1.5176-4.4297-2.7532-6.869-3.6756l-4.2169-1.251c-1.6378-.3581-3.3026-.5787-4.9772-.6595h-.7292s-376.0237,0-376.0237,0c-1.6745.0808-3.3394.3014-4.9772.6595l-4.2169,1.251c-2.4392.9224-4.7482,2.158-6.869,3.6756l-6.9596,6.9596C2.3198,18.0082.3543,24.1323.3543,30.4137v159.3071c0,6.2814,1.9655,12.4055,5.6211,17.5137l6.9596,6.9596c2.1207,1.5176,4.4297,2.7532,6.869,3.6756l4.2169,1.251c1.6378.3581,3.3026.5787,4.9772.6595h376.7529Z"/>
  </g>
</svg>