  0
SECTION
  2
HEADER
  9
$ACADVER
  1
AC1032
  9
$ACADMAINTVER
 90
      251
  9
$DWGCODEPAGE
  3
ANSI_1252
  9
$REQUIREDVERSIONS
160
                 0
  9
$INSBASE
 10
0.0
 20
0.0
 30
0.0
  9
$EXTMIN
 10
1.000000000000000E+20
 20
1.000000000000000E+20
 30
1.000000000000000E+20
  9
$EXTMAX
 10
-1.000000000000000E+20
 20
-1.000000000000000E+20
 30
-1.000000000000000E+20
  9
$LIMMIN
 10
0.0
 20
0.0
  9
$LIMMAX
 10
12.0
 20
9.0
  9
$ORTHOMODE
 70
     0
  9
$REGENMODE
 70
     1
  9
$FILLMODE
 70
     1
  9
$QTEXTMODE
 70
     0
  9
$MIRRTEXT
 70
     0
  9
$LTSCALE
 40
1.0
  9
$ATTMODE
 70
     1
  9
$TEXTSIZE
 40
0.2
  9
$TRACEWID
 40
0.05
  9
$TEXTSTYLE
  7
Standard
  9
$CLAYER
  8
0
  9
$CELTYPE
  6
ByLayer
  9
$CECOLOR
 62
   256
  9
$CELTSCALE
 40
1.0
  9
$DISPSILH
 70
     0
  9
$DIMSCALE
 40
1.0
  9
$DIMASZ
 40
0.18
  9
$DIMEXO
 40
0.0625
  9
$DIMDLI
 40
0.38
  9
$DIMRND
 40
0.0
  9
$DIMDLE
 40
0.0
  9
$DIMEXE
 40
0.18
  9
$DIMTP
 40
0.0
  9
$DIMTM
 40
0.0
  9
$DIMTXT
 40
0.18
  9
$DIMCEN
 40
0.09
  9
$DIMTSZ
 40
0.0
  9
$DIMTOL
 70
     0
  9
$DIMLIM
 70
     0
  9
$DIMTIH
 70
     1
  9
$DIMTOH
 70
     1
  9
$DIMSE1
 70
     0
  9
$DIMSE2
 70
     0
  9
$DIMTAD
 70
     0
  9
$DIMZIN
 70
     0
  9
$DIMBLK
  1

  9
$DIMASO
 70
     1
  9
$DIMSHO
 70
     1
  9
$DIMPOST
  1

  9
$DIMAPOST
  1

  9
$DIMALT
 70
     0
  9
$DIMALTD
 70
     2
  9
$DIMALTF
 40
25.4
  9
$DIMLFAC
 40
1.0
  9
$DIMTOFL
 70
     0
  9
$DIMTVP
 40
0.0
  9
$DIMTIX
 70
     0
  9
$DIMSOXD
 70
     0
  9
$DIMSAH
 70
     0
  9
$DIMBLK1
  1

  9
$DIMBLK2
  1

  9
$DIMSTYLE
  2
Standard
  9
$DIMCLRD
 70
     0
  9
$DIMCLRE
 70
     0
  9
$DIMCLRT
 70
     0
  9
$DIMTFAC
 40
1.0
  9
$DIMGAP
 40
0.09
  9
$DIMJUST
 70
     0
  9
$DIMSD1
 70
     0
  9
$DIMSD2
 70
     0
  9
$DIMTOLJ
 70
     1
  9
$DIMTZIN
 70
     0
  9
$DIMALTZ
 70
     0
  9
$DIMALTTZ
 70
     0
  9
$DIMUPT
 70
     0
  9
$DIMDEC
 70
     4
  9
$DIMTDEC
 70
     4
  9
$DIMALTU
 70
     2
  9
$DIMALTTD
 70
     2
  9
$DIMTXSTY
  7
Standard
  9
$DIMAUNIT
 70
     0
  9
$DIMADEC
 70
     0
  9
$DIMALTRND
 40
0.0
  9
$DIMAZIN
 70
     0
  9
$DIMDSEP
 70
    46
  9
$DIMATFIT
 70
     3
  9
$DIMFRAC
 70
     0
  9
$DIMLDRBLK
  1

  9
$DIMLUNIT
 70
     2
  9
$DIMLWD
 70
    -2
  9
$DIMLWE
 70
    -2
  9
$DIMTMOVE
 70
     0
  9
$DIMFXL
 40
1.0
  9
$DIMFXLON
 70
     0
  9
$DIMJOGANG
 40
0.7853981633974483
  9
$DIMTFILL
 70
     0
  9
$DIMTFILLCLR
 70
     0
  9
$DIMARCSYM
 70
     0
  9
$DIMLTYPE
  6

  9
$DIMLTEX1
  6

  9
$DIMLTEX2
  6

  9
$DIMTXTDIRECTION
 70
     0
  9
$LUNITS
 70
     2
  9
$LUPREC
 70
     4
  9
$SKETCHINC
 40
0.1
  9
$FILLETRAD
 40
0.0
  9
$AUNITS
 70
     0
  9
$AUPREC
 70
     0
  9
$MENU
  1
.
  9
$ELEVATION
 40
0.0
  9
$PELEVATION
 40
0.0
  9
$THICKNESS
 40
0.0
  9
$LIMCHECK
 70
     0
  9
$CHAMFERA
 40
0.0
  9
$CHAMFERB
 40
0.0
  9
$CHAMFERC
 40
0.0
  9
$CHAMFERD
 40
0.0
  9
$SKPOLY
 70
     0
  9
$TDCREATE
 40
2460152.546851852
  9
$TDUCREATE
 40
2460152.755185185
  9
$TDUPDATE
 40
2460152.546851852
  9
$TDUUPDATE
 40
2460152.755185185
  9
$TDINDWG
 40
0.0000000000
  9
$TDUSRTIMER
 40
0.0000000000
  9
$USRTIMER
 70
     1
  9
$ANGBASE
 50
0.0
  9
$ANGDIR
 70
     0
  9
$PDMODE
 70
     0
  9
$PDSIZE
 40
0.0
  9
$PLINEWID
 40
0.0
  9
$SPLFRAME
 70
     0
  9
$SPLINETYPE
 70
     6
  9
$SPLINESEGS
 70
     8
  9
$HANDSEED
  5
115
  9
$SURFTAB1
 70
     6
  9
$SURFTAB2
 70
     6
  9
$SURFTYPE
 70
     6
  9
$SURFU
 70
     6
  9
$SURFV
 70
     6
  9
$UCSBASE
  2

  9
$UCSNAME
  2

  9
$UCSORG
 10
0.0
 20
0.0
 30
0.0
  9
$UCSXDIR
 10
1.0
 20
0.0
 30
0.0
  9
$UCSYDIR
 10
0.0
 20
1.0
 30
0.0
  9
$UCSORTHOREF
  2

  9
$UCSORTHOVIEW
 70
     0
  9
$UCSORGTOP
 10
0.0
 20
0.0
 30
0.0
  9
$UCSORGBOTTOM
 10
0.0
 20
0.0
 30
0.0
  9
$UCSORGLEFT
 10
0.0
 20
0.0
 30
0.0
  9
$UCSORGRIGHT
 10
0.0
 20
0.0
 30
0.0
  9
$UCSORGFRONT
 10
0.0
 20
0.0
 30
0.0
  9
$UCSORGBACK
 10
0.0
 20
0.0
 30
0.0
  9
$PUCSBASE
  2

  9
$PUCSNAME
  2

  9
$PUCSORG
 10
0.0
 20
0.0
 30
0.0
  9
$PUCSXDIR
 10
1.0
 20
0.0
 30
0.0
  9
$PUCSYDIR
 10
0.0
 20
1.0
 30
0.0
  9
$PUCSORTHOREF
  2

  9
$PUCSORTHOVIEW
 70
     0
  9
$PUCSORGTOP
 10
0.0
 20
0.0
 30
0.0
  9
$PUCSORGBOTTOM
 10
0.0
 20
0.0
 30
0.0
  9
$PUCSORGLEFT
 10
0.0
 20
0.0
 30
0.0
  9
$PUCSORGRIGHT
 10
0.0
 20
0.0
 30
0.0
  9
$PUCSORGFRONT
 10
0.0
 20
0.0
 30
0.0
  9
$PUCSORGBACK
 10
0.0
 20
0.0
 30
0.0
  9
$USERI1
 70
     0
  9
$USERI2
 70
     0
  9
$USERI3
 70
     0
  9
$USERI4
 70
     0
  9
$USERI5
 70
     0
  9
$USERR1
 40
0.0
  9
$USERR2
 40
0.0
  9
$USERR3
 40
0.0
  9
$USERR4
 40
0.0
  9
$USERR5
 40
0.0
  9
$WORLDVIEW
 70
     1
  9
$SHADEDGE
 70
     3
  9
$SHADEDIF
 70
    70
  9
$TILEMODE
 70
     1
  9
$MAXACTVP
 70
    64
  9
$PINSBASE
 10
0.0
 20
0.0
 30
0.0
  9
$PLIMCHECK
 70
     0
  9
$PEXTMIN
 10
1.000000000000000E+20
 20
1.000000000000000E+20
 30
1.000000000000000E+20
  9
$PEXTMAX
 10
-1.000000000000000E+20
 20
-1.000000000000000E+20
 30
-1.000000000000000E+20
  9
$PLIMMIN
 10
0.0
 20
0.0
  9
$PLIMMAX
 10
12.0
 20
9.0
  9
$UNITMODE
 70
     0
  9
$VISRETAIN
 70
     1
  9
$PLINEGEN
 70
     0
  9
$PSLTSCALE
 70
     1
  9
$TREEDEPTH
 70
  3020
  9
$CMLSTYLE
  2
Standard
  9
$CMLJUST
 70
     0
  9
$CMLSCALE
 40
1.0
  9
$PROXYGRAPHICS
 70
     1
  9
$MEASUREMENT
 70
     0
  9
$CELWEIGHT
370
    -1
  9
$ENDCAPS
280
     0
  9
$JOINSTYLE
280
     0
  9
$LWDISPLAY
290
     1
  9
$INSUNITS
 70
     1
  9
$HYPERLINKBASE
  1

  9
$STYLESHEET
  1

  9
$XEDIT
290
     1
  9
$CEPSNTYPE
380
     0
  9
$PSTYLEMODE
290
     1
  9
$FINGERPRINTGUID
  2
{422BD66D-0798-5C40-B673-BA5908DD9011}
  9
$VERSIONGUID
  2
{45D5F95F-2BEB-EF4A-A78A-7C62124F7E23}
  9
$EXTNAMES
290
     1
  9
$PSVPSCALE
 40
0.0
  9
$OLESTARTUP
290
     0
  9
$SORTENTS
280
   127
  9
$INDEXCTL
280
     0
  9
$HIDETEXT
280
     1
  9
$XCLIPFRAME
280
     2
  9
$HALOGAP
280
     0
  9
$OBSCOLOR
 70
   257
  9
$OBSLTYPE
280
     0
  9
$INTERSECTIONDISPLAY
280
     0
  9
$INTERSECTIONCOLOR
 70
   257
  9
$DIMASSOC
280
     2
  9
$PROJECTNAME
  1

  9
$CAMERADISPLAY
290
     0
  9
$LENSLENGTH
 40
50.0
  9
$CAMERAHEIGHT
 40
0.0
  9
$STEPSPERSEC
 40
2.0
  9
$STEPSIZE
 40
6.0
  9
$3DDWFPREC
 40
2.0
  9
$PSOLWIDTH
 40
0.25
  9
$PSOLHEIGHT
 40
4.0
  9
$LOFTANG1
 40
1.570796326794896
  9
$LOFTANG2
 40
1.570796326794896
  9
$LOFTMAG1
 40
0.0
  9
$LOFTMAG2
 40
0.0
  9
$LOFTPARAM
 70
     7
  9
$LOFTNORMALS
280
     1
  9
$LATITUDE
 40
37.795
  9
$LONGITUDE
 40
-122.394
  9
$NORTHDIRECTION
 40
0.0
  9
$TIMEZONE
 70
 -8000
  9
$LIGHTGLYPHDISPLAY
280
     1
  9
$TILEMODELIGHTSYNCH
280
     1
  9
$CMATERIAL
347
11
  9
$SOLIDHIST
280
     0
  9
$SHOWHIST
280
     1
  9
$DWFFRAME
280
     2
  9
$DGNFRAME
280
     0
  9
$REALWORLDSCALE
290
     1
  9
$INTERFERECOLOR
 62
     1
  9
$INTERFEREOBJVS
345
33
  9
$INTERFEREVPVS
346
30
  9
$CSHADOW
280
     0
  9
$SHADOWPLANELOCATION
 40
0.0
  0
ENDSEC
  0
SECTION
  2
CLASSES
  0
CLASS
  1
ACDBDICTIONARYWDFLT
  2
AcDbDictionaryWithDefault
  3
ObjectDBX Classes
 90
        0
 91
        1
280
     0
281
     0
  0
CLASS
  1
MATERIAL
  2
AcDbMaterial
  3
ObjectDBX Classes
 90
     1153
 91
        3
280
     0
281
     0
  0
CLASS
  1
VISUALSTYLE
  2
AcDbVisualStyle
  3
ObjectDBX Classes
 90
     4095
 91
       24
280
     0
281
     0
  0
CLASS
  1
SCALE
  2
AcDbScale
  3
ObjectDBX Classes
 90
     1153
 91
       17
280
     0
281
     0
  0
CLASS
  1
TABLESTYLE
  2
AcDbTableStyle
  3
ObjectDBX Classes
 90
     4095
 91
        1
280
     0
281
     0
  0
CLASS
  1
MLEADERSTYLE
  2
AcDbMLeaderStyle
  3
ACDB_MLEADERSTYLE_CLASS
 90
     4095
 91
        1
280
     0
281
     0
  0
CLASS
  1
ACDBSECTIONVIEWSTYLE
  2
AcDbSectionViewStyle
  3
ObjectDBX Classes
 90
     1025
 91
        1
280
     0
281
     0
  0
CLASS
  1
ACDBDETAILVIEWSTYLE
  2
AcDbDetailViewStyle
  3
ObjectDBX Classes
 90
     1025
 91
        1
280
     0
281
     0
  0
CLASS
  1
DICTIONARYVAR
  2
AcDbDictionaryVar
  3
ObjectDBX Classes
 90
        0
 91
        5
280
     0
281
     0
  0
CLASS
  1
CELLSTYLEMAP
  2
AcDbCellStyleMap
  3
ObjectDBX Classes
 90
     1152
 91
        1
280
     0
281
     0
  0
ENDSEC
  0
SECTION
  2
TABLES
  0
TABLE
  2
VPORT
  5
8
330
0
100
AcDbSymbolTable
 70
     1
  0
VPORT
  5
57
330
8
100
AcDbSymbolTableRecord
100
AcDbViewportTableRecord
  2
*Active
 70
     0
 10
0.0
 20
0.0
 11
1.0
 21
1.0
 12
0.0
 22
0.0
 13
0.0
 23
0.0
 14
1.0
 24
1.0
 15
0.0
 25
0.0
 16
0.0
 26
0.0
 36
1.0
 17
9.852789819139628
 27
6.455485245242792
 37
0.0
 40
15.33013202761815
 41
1.311123165464853
 42
50.0
 43
0.0
 44
0.0
 50
0.0
 51
0.0
 71
     0
 72
   100
 73
     1
 74
     1
 75
     0
 76
     0
 77
     0
 78
     0
281
     0
 65
     1
110
0.0
120
0.0
130
0.0
111
1.0
121
0.0
131
0.0
112
0.0
122
1.0
132
0.0
 79
     0
146
0.0
 60
     3
 61
     5
292
     1
282
     1
141
0.0
142
0.0
 63
   250
421
  3355443
  0
ENDTAB
  0
TABLE
  2
LTYPE
  5
5
330
0
100
AcDbSymbolTable
 70
     1
  0
LTYPE
  5
5B
330
5
100
AcDbSymbolTableRecord
100
AcDbLinetypeTableRecord
  2
ByBlock
 70
     0
  3

 72
    65
 73
     0
 40
0.0
  0
LTYPE
  5
5C
330
5
100
AcDbSymbolTableRecord
100
AcDbLinetypeTableRecord
  2
ByLayer
 70
     0
  3

 72
    65
 73
     0
 40
0.0
  0
LTYPE
  5
5D
330
5
100
AcDbSymbolTableRecord
100
AcDbLinetypeTableRecord
  2
Continuous
 70
     0
  3
Solid line
 72
    65
 73
     0
 40
0.0
  0
ENDTAB
  0
TABLE
  2
LAYER
  5
2
330
0
100
AcDbSymbolTable
 70
     1
  0
LAYER
  5
54
330
2
100
AcDbSymbolTableRecord
100
AcDbLayerTableRecord
  2
0
 70
     0
 62
     7
  6
Continuous
370
     0
390
F
347
21
348
0
  0
ENDTAB
  0
TABLE
  2
STYLE
  5
3
330
0
100
AcDbSymbolTable
 70
     2
  0
STYLE
  5
55
330
3
100
AcDbSymbolTableRecord
100
AcDbTextStyleTableRecord
  2
Standard
 70
     0
 40
0.0
 41
1.0
 50
0.0
 71
     0
 42
0.2
  3
txt
  4

  0
STYLE
  5
5A
330
3
100
AcDbSymbolTableRecord
100
AcDbTextStyleTableRecord
  2
Annotative
 70
     0
 40
0.0
 41
1.0
 50
0.0
 71
     0
 42
0.2
  3
txt
  4

1001
AcadAnnotative
1000
AnnotativeData
1002
{
1070
     1
1070
     1
1002
}
  0
ENDTAB
  0
TABLE
  2
VIEW
  5
6
330
0
100
AcDbSymbolTable
 70
     0
  0
ENDTAB
  0
TABLE
  2
UCS
  5
7
330
0
100
AcDbSymbolTable
 70
     0
  0
ENDTAB
  0
TABLE
  2
APPID
  5
9
330
0
100
AcDbSymbolTable
 70
     2
  0
APPID
  5
56
330
9
100
AcDbSymbolTableRecord
100
AcDbRegAppTableRecord
  2
ACAD
 70
     0
  0
APPID
  5
5E
330
9
100
AcDbSymbolTableRecord
100
AcDbRegAppTableRecord
  2
AcadAnnotative
 70
     0
  0
ENDTAB
  0
TABLE
  2
DIMSTYLE
  5
A
330
0
100
AcDbSymbolTable
 70
     2
100
AcDbDimStyleTable
 71
     0
  0
DIMSTYLE
105
58
330
A
100
AcDbSymbolTableRecord
100
AcDbDimStyleTableRecord
  2
Standard
 70
     0
340
55
  0
DIMSTYLE
105
59
330
A
100
AcDbSymbolTableRecord
100
AcDbDimStyleTableRecord
  2
Annotative
 70
     0
340
55
1001
AcadAnnotative
1000
AnnotativeData
1002
{
1070
     1
1070
     1
1002
}
  0
ENDTAB
  0
TABLE
  2
BLOCK_RECORD
  5
1
330
0
100
AcDbSymbolTable
 70
     1
  0
BLOCK_RECORD
  5
70
330
1
100
AcDbSymbolTableRecord
100
AcDbBlockTableRecord
  2
*Model_Space
340
73
 70
     0
280
     1
281
     0
  0
BLOCK_RECORD
  5
6C
330
1
100
AcDbSymbolTableRecord
100
AcDbBlockTableRecord
  2
*Paper_Space
340
6F
 70
     0
280
     1
281
     0
  0
BLOCK_RECORD
  5
74
330
1
100
AcDbSymbolTableRecord
100
AcDbBlockTableRecord
  2
*Paper_Space0
340
77
 70
     0
280
     1
281
     0
  0
ENDTAB
  0
ENDSEC
  0
SECTION
  2
BLOCKS
  0
BLOCK
  5
71
330
70
100
AcDbEntity
  8
0
100
AcDbBlockBegin
  2
*Model_Space
 70
     0
 10
0.0
 20
0.0
 30
0.0
  3
*Model_Space
  1

  0
ENDBLK
  5
72
330
70
100
AcDbEntity
  8
0
100
AcDbBlockEnd
  0
BLOCK
  5
6D
330
6C
100
AcDbEntity
 67
     1
  8
0
100
AcDbBlockBegin
  2
*Paper_Space
 70
     0
 10
0.0
 20
0.0
 30
0.0
  3
*Paper_Space
  1

  0
ENDBLK
  5
6E
330
6C
100
AcDbEntity
 67
     1
  8
0
100
AcDbBlockEnd
  0
BLOCK
  5
75
330
74
100
AcDbEntity
 67
     1
  8
0
100
AcDbBlockBegin
  2
*Paper_Space0
 70
     0
 10
0.0
 20
0.0
 30
0.0
  3
*Paper_Space0
  1

  0
ENDBLK
  5
76
330
74
100
AcDbEntity
 67
     1
  8
0
100
AcDbBlockEnd
  0
ENDSEC
  0
SECTION
  2
ENTITIES
  0
CIRCLE
  5
78
330
70
100
AcDbEntity
  8
0
 62
    18
420
        0
370
    25
100
AcDbCircle
 10
4.236111111006723
 20
2.484751867941737
 30
0.0
 40
0.7090000001772456
  0
SPLINE
  5
79
330
70
100
AcDbEntity
  8
0
 62
    18
420
        0
370
    25
100
AcDbSpline
210
0.0
220
0.0
230
1.0
 70
     9
 71
     3
 72
    29
 73
    25
 74
     0
 42
0.0000000001
 43
0.0000000001
 40
0.0
 40
0.0
 40
0.0
 40
0.0
 40
1.0
 40
1.0
 40
1.0
 40
2.0
 40
2.0
 40
2.0
 40
3.0
 40
3.0
 40
3.0
 40
4.0
 40
4.0
 40
4.0
 40
5.0
 40
5.0
 40
5.0
 40
6.0
 40
6.0
 40
6.0
 40
7.0
 40
7.0
 40
7.0
 40
8.0
 40
8.0
 40
8.0
 40
8.0
 10
6.643227480671965
 20
6.033785390158199
 30
0.0
 10
6.643227480671965
 20
6.033785390158199
 30
0.0
 10
1.829183272730473
 20
6.033404930569632
 30
0.0
 10
1.829183272730473
 20
6.033404930569632
 30
0.0
 10
1.201440731447531
 20
6.033240972644332
 30
0.0
 10
0.6925077690223134
 20
5.524562662048689
 30
0.0
 10
0.692029632647114
 20
4.896820281446429
 30
0.0
 10
0.692029632647114
 20
4.896820281446429
 30
0.0
 10
0.6924100921313159
 20
0.0827895434832095
 30
0.0
 10
0.6924100921313159
 20
0.0827895434832095
 30
0.0
 10
0.6925740500662414
 20
-0.5449529978437415
 30
0.0
 10
1.201252360695156
 20
-1.053885960302219
 30
0.0
 10
1.8289947413414
 20
-1.054364096687069
 30
0.0
 10
1.8289947413414
 20
-1.054364096687069
 30
0.0
 10
6.643038949283006
 20
-1.053983637098503
 30
0.0
 10
6.643038949283006
 20
-1.053983637098503
 30
0.0
 10
7.270781490623549
 20
-1.053819679173178
 30
0.0
 10
7.779714453095468
 20
-0.5451413685308732
 30
0.0
 10
7.780192589470718
 20
0.0826010121289882
 30
0.0
 10
7.780192589470718
 20
0.0826010121289882
 30
0.0
 10
7.779812129882126
 20
4.896631750092309
 30
0.0
 10
7.779812129882126
 20
4.896631750092309
 30
0.0
 10
7.779648171918374
 20
5.524374291390434
 30
0.0
 10
7.270969861289434
 20
6.033307253802225
 30
0.0
 10
6.643227480671965
 20
6.033785390158199
 30
0.0
  0
CIRCLE
  5
7A
330
70
100
AcDbEntity
  8
0
 62
    18
420
        0
370
    25
100
AcDbCircle
 10
4.236111111006723
 20
2.484751867941737
 30
0.0
 40
0.7090000001772456
  0
SPLINE
  5
7B
330
70
100
AcDbEntity
  8
0
 62
    18
420
        0
370
    25
100
AcDbSpline
210
0.0
220
0.0
230
1.0
 70
     9
 71
     3
 72
    29
 73
    25
 74
     0
 42
0.0000000001
 43
0.0000000001
 40
0.0
 40
0.0
 40
0.0
 40
0.0
 40
1.0
 40
1.0
 40
1.0
 40
2.0
 40
2.0
 40
2.0
 40
3.0
 40
3.0
 40
3.0
 40
4.0
 40
4.0
 40
4.0
 40
5.0
 40
5.0
 40
5.0
 40
6.0
 40
6.0
 40
6.0
 40
7.0
 40
7.0
 40
7.0
 40
8.0
 40
8.0
 40
8.0
 40
8.0
 10
6.643227480671965
 20
6.033785390158199
 30
0.0
 10
6.643227480671965
 20
6.033785390158199
 30
0.0
 10
1.829183272730473
 20
6.033404930569632
 30
0.0
 10
1.829183272730473
 20
6.033404930569632
 30
0.0
 10
1.201440731447531
 20
6.033240972644332
 30
0.0
 10
0.6925077690223134
 20
5.524562662048689
 30
0.0
 10
0.692029632647114
 20
4.896820281446429
 30
0.0
 10
0.692029632647114
 20
4.896820281446429
 30
0.0
 10
0.6924100921313159
 20
0.0827895434832095
 30
0.0
 10
0.6924100921313159
 20
0.0827895434832095
 30
0.0
 10
0.6925740500662414
 20
-0.5449529978437415
 30
0.0
 10
1.201252360695156
 20
-1.053885960302219
 30
0.0
 10
1.8289947413414
 20
-1.054364096687069
 30
0.0
 10
1.8289947413414
 20
-1.054364096687069
 30
0.0
 10
6.643038949283006
 20
-1.053983637098503
 30
0.0
 10
6.643038949283006
 20
-1.053983637098503
 30
0.0
 10
7.270781490623549
 20
-1.053819679173178
 30
0.0
 10
7.779714453095468
 20
-0.5451413685308732
 30
0.0
 10
7.780192589470718
 20
0.0826010121289882
 30
0.0
 10
7.780192589470718
 20
0.0826010121289882
 30
0.0
 10
7.779812129882126
 20
4.896631750092309
 30
0.0
 10
7.779812129882126
 20
4.896631750092309
 30
0.0
 10
7.779648171918374
 20
5.524374291390434
 30
0.0
 10
7.270969861289434
 20
6.033307253802225
 30
0.0
 10
6.643227480671965
 20
6.033785390158199
 30
0.0
  0
CIRCLE
  5
7C
330
70
100
AcDbEntity
  8
0
 62
    18
420
        0
370
    25
100
AcDbCircle
 10
7.185276514065391
 20
-0.4593654580828633
 30
0.0
 40
0.1275000000318679
  0
CIRCLE
  5
7D
330
70
100
AcDbEntity
  8
0
 62
    18
420
        0
370
    25
100
AcDbCircle
 10
1.286945707948057
 20
5.438786751658382
 30
0.0
 40
0.1275000000318774
  0
CIRCLE
  5
7E
330
70
100
AcDbEntity
  8
0
 62
    18
420
        0
370
    25
100
AcDbCircle
 10
7.185193950866485
 20
5.438869314857299
 30
0.0
 40
0.1275000000318679
  0
CIRCLE
  5
7F
330
70
100
AcDbEntity
  8
0
 62
    18
420
        0
370
    25
100
AcDbCircle
 10
1.287028271146959
 20
-0.4594480212817618
 30
0.0
 40
0.1275000000318853
  0
SPLINE
  5
80
330
70
100
AcDbEntity
  8
0
 62
    18
420
        0
370
    25
100
AcDbSpline
210
0.0
220
0.0
230
1.0
 70
     9
 71
     3
 72
    53
 73
    49
 74
     0
 42
0.0000000001
 43
0.0000000001
 40
0.0
 40
0.0
 40
0.0
 40
0.0
 40
1.0
 40
1.0
 40
1.0
 40
2.0
 40
2.0
 40
2.0
 40
3.0
 40
3.0
 40
3.0
 40
4.0
 40
4.0
 40
4.0
 40
5.0
 40
5.0
 40
5.0
 40
6.0
 40
6.0
 40
6.0
 40
7.0
 40
7.0
 40
7.0
 40
8.0
 40
8.0
 40
8.0
 40
9.0
 40
9.0
 40
9.0
 40
10.0
 40
10.0
 40
10.0
 40
11.0
 40
11.0
 40
11.0
 40
12.0
 40
12.0
 40
12.0
 40
13.0
 40
13.0
 40
13.0
 40
14.0
 40
14.0
 40
14.0
 40
15.0
 40
15.0
 40
15.0
 40
16.0
 40
16.0
 40
16.0
 40
16.0
 10
7.622331816591794
 20
4.896603894507178
 30
0.0
 10
7.622183239742702
 20
5.437406252385218
 30
0.0
 10
7.18397100039053
 20
5.875859341665873
 30
0.0
 10
6.643168805789072
 20
5.876305072252711
 30
0.0
 10
6.643168805789072
 20
5.876305072252711
 30
0.0
 10
6.643047260068922
 20
5.728834412001029
 30
0.0
 10
6.643047260068922
 20
5.728834412001029
 30
0.0
 10
6.643047260068922
 20
5.728834412001029
 30
0.0
 10
1.829251643514377
 20
5.728453912608301
 30
0.0
 10
1.829251643514377
 20
5.728453912608301
 30
0.0
 10
1.829251643514377
 20
5.728453912608301
 30
0.0
 10
1.829211128298172
 20
5.875924617383689
 30
0.0
 10
1.829211128298172
 20
5.875924617383689
 30
0.0
 10
1.288408770420131
 20
5.875776040534573
 30
0.0
 10
0.8499556811394642
 20
5.437563801182426
 30
0.0
 10
0.8495099505526265
 20
4.896761606580967
 30
0.0
 10
0.8495099505526265
 20
4.896761606580967
 30
0.0
 10
0.9969806108043206
 20
4.896640060860818
 30
0.0
 10
0.9969806108043206
 20
4.896640060860818
 30
0.0
 10
0.9969806108043206
 20
4.896640060860818
 30
0.0
 10
0.9973611101970366
 20
0.0828579142845582
 30
0.0
 10
0.9973611101970366
 20
0.0828579142845582
 30
0.0
 10
0.9973611101970366
 20
0.0828579142845582
 30
0.0
 10
0.8498904054216483
 20
0.0828173990683657
 30
0.0
 10
0.8498904054216483
 20
0.0828173990683657
 30
0.0
 10
0.8500389822707523
 20
-0.457984958809675
 30
0.0
 10
1.288251221622911
 20
-0.8964380480903551
 30
0.0
 10
1.829053416224382
 20
-0.8968837786771675
 30
0.0
 10
1.829053416224382
 20
-0.8968837786771675
 30
0.0
 10
1.82917496194452
 20
-0.7494131184254861
 30
0.0
 10
1.82917496194452
 20
-0.7494131184254861
 30
0.0
 10
1.82917496194452
 20
-0.7494131184254861
 30
0.0
 10
6.642970578499064
 20
-0.7490326190327829
 30
0.0
 10
6.642970578499064
 20
-0.7490326190327829
 30
0.0
 10
6.642970578499064
 20
-0.7490326190327829
 30
0.0
 10
6.643011093715282
 20
-0.8965033238081458
 30
0.0
 10
6.643011093715282
 20
-0.8965033238081458
 30
0.0
 10
7.183813451593323
 20
-0.8963547469590542
 30
0.0
 10
7.622266540873978
 20
-0.4581425076069082
 30
0.0
 10
7.622712271460815
 20
0.0826596869945762
 30
0.0
 10
7.622712271460815
 20
0.0826596869945762
 30
0.0
 10
7.475241611209134
 20
0.0827812327147007
 30
0.0
 10
7.475241611209134
 20
0.0827812327147007
 30
0.0
 10
7.475241611209134
 20
0.0827812327147007
 30
0.0
 10
7.474861111816405
 20
4.89656337929096
 30
0.0
 10
7.474861111816405
 20
4.89656337929096
 30
0.0
 10
7.474861111816405
 20
4.89656337929096
 30
0.0
 10
7.622331816591794
 20
4.896603894507178
 30
0.0
 10
7.622331816591794
 20
4.896603894507178
 30
0.0
  0
SPLINE
  5
81
330
70
100
AcDbEntity
  8
0
 62
    18
420
        0
370
    25
100
AcDbSpline
210
0.0
220
0.0
230
1.0
 70
    11
 71
     3
 72
    53
 73
    49
 74
     0
 42
0.0000000001
 43
0.0000000001
 40
0.0
 40
0.0
 40
0.0
 40
0.0
 40
1.0
 40
1.0
 40
1.0
 40
2.0
 40
2.0
 40
2.0
 40
3.0
 40
3.0
 40
3.0
 40
4.0
 40
4.0
 40
4.0
 40
5.0
 40
5.0
 40
5.0
 40
6.0
 40
6.0
 40
6.0
 40
7.0
 40
7.0
 40
7.0
 40
8.0
 40
8.0
 40
8.0
 40
9.0
 40
9.0
 40
9.0
 40
10.0
 40
10.0
 40
10.0
 40
11.0
 40
11.0
 40
11.0
 40
12.0
 40
12.0
 40
12.0
 40
13.0
 40
13.0
 40
13.0
 40
14.0
 40
14.0
 40
14.0
 40
15.0
 40
15.0
 40
15.0
 40
16.0
 40
16.0
 40
16.0
 40
16.0
 10
7.495694445201934
 20
12.82811257630538
 30
0.0
 10
7.495694445201934
 20
12.82811257630538
 30
0.0
 10
7.643165149977321
 20
12.82815309152162
 30
0.0
 10
7.643165149977321
 20
12.82815309152162
 30
0.0
 10
7.643016573128205
 20
13.36895544939965
 30
0.0
 10
7.204804333776059
 20
13.80740853868029
 30
0.0
 10
6.664002139174599
 20
13.80785426926714
 30
0.0
 10
6.664002139174599
 20
13.80785426926714
 30
0.0
 10
6.66388059345445
 20
13.66038360901544
 30
0.0
 10
6.66388059345445
 20
13.66038360901544
 30
0.0
 10
6.66388059345445
 20
13.66038360901544
 30
0.0
 10
1.850084976899905
 20
13.66000310962272
 30
0.0
 10
1.850084976899905
 20
13.66000310962272
 30
0.0
 10
1.850084976899905
 20
13.66000310962272
 30
0.0
 10
1.8500444616837
 20
13.80747381439811
 30
0.0
 10
1.8500444616837
 20
13.80747381439811
 30
0.0
 10
1.30924210380566
 20
13.807325237549
 30
0.0
 10
0.8707890145250051
 20
13.36911299819684
 30
0.0
 10
0.8703432839381674
 20
12.82831080359537
 30
0.0
 10
0.8703432839381674
 20
12.82831080359537
 30
0.0
 10
1.017813944189848
 20
12.82818925787525
 30
0.0
 10
1.017813944189848
 20
12.82818925787525
 30
0.0
 10
1.017813944189848
 20
12.82818925787525
 30
0.0
 10
1.018194443582564
 20
8.014407111298989
 30
0.0
 10
1.018194443582564
 20
8.014407111298989
 30
0.0
 10
1.018194443582564
 20
8.014407111298989
 30
0.0
 10
0.8707237388071764
 20
8.014366596082759
 30
0.0
 10
0.8707237388071764
 20
8.014366596082759
 30
0.0
 10
0.8708723156562806
 20
7.473564238204731
 30
0.0
 10
1.309084555008439
 20
7.035111148924076
 30
0.0
 10
1.849886749609911
 20
7.034665418337239
 30
0.0
 10
1.849886749609911
 20
7.034665418337239
 30
0.0
 10
1.850008295330048
 20
7.182136078588932
 30
0.0
 10
1.850008295330048
 20
7.182136078588932
 30
0.0
 10
1.850008295330048
 20
7.182136078588932
 30
0.0
 10
6.663803911884592
 20
7.182516577981648
 30
0.0
 10
6.663803911884592
 20
7.182516577981648
 30
0.0
 10
6.663803911884592
 20
7.182516577981648
 30
0.0
 10
6.66384442710081
 20
7.03504587320626
 30
0.0
 10
6.66384442710081
 20
7.03504587320626
 30
0.0
 10
7.204646784978851
 20
7.035194450055364
 30
0.0
 10
7.643099874259505
 20
7.473406689407511
 30
0.0
 10
7.643545604846344
 20
8.014208884008983
 30
0.0
 10
7.643545604846344
 20
8.014208884008983
 30
0.0
 10
7.496074944594662
 20
8.014330429729119
 30
0.0
 10
7.496074944594662
 20
8.014330429729119
 30
0.0
 10
7.496074944594662
 20
8.014330429729119
 30
0.0
 10
7.495694445201934
 20
12.82811257630538
 30
0.0
 10
7.495694445201934
 20
12.82811257630538
 30
0.0
  0
SPLINE
  5
82
330
70
100
AcDbEntity
  8
0
 62
    18
420
        0
370
    25
100
AcDbSpline
210
0.0
220
0.0
230
1.0
 70
     9
 71
     3
 72
    29
 73
    25
 74
     0
 42
0.0000000001
 43
0.0000000001
 40
0.0
 40
0.0
 40
0.0
 40
0.0
 40
1.0
 40
1.0
 40
1.0
 40
2.0
 40
2.0
 40
2.0
 40
3.0
 40
3.0
 40
3.0
 40
4.0
 40
4.0
 40
4.0
 40
5.0
 40
5.0
 40
5.0
 40
6.0
 40
6.0
 40
6.0
 40
7.0
 40
7.0
 40
7.0
 40
8.0
 40
8.0
 40
8.0
 40
8.0
 10
6.664060814057493
 20
13.96533458717264
 30
0.0
 10
6.664060814057493
 20
13.96533458717264
 30
0.0
 10
1.850016606116001
 20
13.96495412758409
 30
0.0
 10
1.850016606116001
 20
13.96495412758409
 30
0.0
 10
1.222274064833047
 20
13.96479016965878
 30
0.0
 10
0.7133411024078289
 20
13.45611185906312
 30
0.0
 10
0.7128629660326422
 20
12.82836947846086
 30
0.0
 10
0.7128629660326422
 20
12.82836947846086
 30
0.0
 10
0.7132434255168442
 20
8.014338740497652
 30
0.0
 10
0.7132434255168442
 20
8.014338740497652
 30
0.0
 10
0.7134073834517696
 20
7.386596199170702
 30
0.0
 10
1.222085694080672
 20
6.877663236712199
 30
0.0
 10
1.849828074726929
 20
6.877185100327348
 30
0.0
 10
1.849828074726929
 20
6.877185100327348
 30
0.0
 10
6.663872282668535
 20
6.877565559915915
 30
0.0
 10
6.663872282668535
 20
6.877565559915915
 30
0.0
 10
7.291614824009077
 20
6.877729517841228
 30
0.0
 10
7.800547786480996
 20
7.386407828483558
 30
0.0
 10
7.801025922856246
 20
8.014150209143419
 30
0.0
 10
7.801025922856246
 20
8.014150209143419
 30
0.0
 10
7.800645463267654
 20
12.82818094710673
 30
0.0
 10
7.800645463267654
 20
12.82818094710673
 30
0.0
 10
7.800481505303903
 20
13.45592348840488
 30
0.0
 10
7.291803194674962
 20
13.96485645081664
 30
0.0
 10
6.664060814057493
 20
13.96533458717264
 30
0.0
  0
CIRCLE
  5
83
330
70
100
AcDbEntity
  8
0
 62
    18
420
        0
370
    25
100
AcDbCircle
 10
4.256944444392252
 20
10.41630106495616
 30
0.0
 40
0.7090000001772535
  0
SPLINE
  5
84
330
70
100
AcDbEntity
  8
0
 62
    18
420
        0
370
    25
100
AcDbSpline
210
0.0
220
0.0
230
1.0
 70
     9
 71
     3
 72
    29
 73
    25
 74
     0
 42
0.0000000001
 43
0.0000000001
 40
0.0
 40
0.0
 40
0.0
 40
0.0
 40
1.0
 40
1.0
 40
1.0
 40
2.0
 40
2.0
 40
2.0
 40
3.0
 40
3.0
 40
3.0
 40
4.0
 40
4.0
 40
4.0
 40
5.0
 40
5.0
 40
5.0
 40
6.0
 40
6.0
 40
6.0
 40
7.0
 40
7.0
 40
7.0
 40
8.0
 40
8.0
 40
8.0
 40
8.0
 10
1.850016606116001
 20
13.96495412758407
 30
0.0
 10
1.222274064833047
 20
13.96479016965878
 30
0.0
 10
0.7133411024078289
 20
13.45611185906312
 30
0.0
 10
0.7128629660326422
 20
12.82836947846086
 30
0.0
 10
0.7128629660326422
 20
12.82836947846086
 30
0.0
 10
0.7132434255168442
 20
8.014338740497652
 30
0.0
 10
0.7132434255168442
 20
8.014338740497652
 30
0.0
 10
0.7134073834517696
 20
7.386596199170702
 30
0.0
 10
1.222085694080672
 20
6.877663236712199
 30
0.0
 10
1.849828074726929
 20
6.877185100327348
 30
0.0
 10
1.849828074726929
 20
6.877185100327348
 30
0.0
 10
6.663872282668535
 20
6.877565559915915
 30
0.0
 10
6.663872282668535
 20
6.877565559915915
 30
0.0
 10
7.291614824009077
 20
6.877729517841228
 30
0.0
 10
7.800547786480996
 20
7.386407828483558
 30
0.0
 10
7.801025922856246
 20
8.014150209143419
 30
0.0
 10
7.801025922856246
 20
8.014150209143419
 30
0.0
 10
7.800645463267654
 20
12.82818094710673
 30
0.0
 10
7.800645463267654
 20
12.82818094710673
 30
0.0
 10
7.800481505303903
 20
13.45592348840488
 30
0.0
 10
7.291803194674962
 20
13.96485645081664
 30
0.0
 10
6.664060814057493
 20
13.96533458717263
 30
0.0
 10
6.664060814057493
 20
13.96533458717263
 30
0.0
 10
1.850016606116001
 20
13.96495412758409
 30
0.0
 10
1.850016606116001
 20
13.96495412758407
 30
0.0
  0
CIRCLE
  5
85
330
70
100
AcDbEntity
  8
0
 62
    18
420
        0
370
    25
100
AcDbCircle
 10
4.256944444392252
 20
10.41630106495616
 30
0.0
 40
0.7090000001772535
  0
CIRCLE
  5
86
330
70
100
AcDbEntity
  8
0
 62
    18
420
        0
370
    25
100
AcDbCircle
 10
7.206109847450918
 20
7.472183738931565
 30
0.0
 40
0.1275000000318758
  0
CIRCLE
  5
87
330
70
100
AcDbEntity
  8
0
 62
    18
420
        0
370
    25
100
AcDbCircle
 10
1.307861604532487
 20
7.47210117573266
 30
0.0
 40
0.1275000000318837
  0
CIRCLE
  5
88
330
70
100
AcDbEntity
  8
0
 62
    18
420
        0
370
    25
100
AcDbCircle
 10
1.307779041333585
 20
13.3703359486728
 30
0.0
 40
0.1275000000318742
  0
CIRCLE
  5
89
330
70
100
AcDbEntity
  8
0
 62
    18
420
        0
370
    25
100
AcDbCircle
 10
7.206027284252014
 20
13.37041851187172
 30
0.0
 40
0.1275000000318679
  0
SPLINE
  5
8A
330
70
100
AcDbEntity
  8
0
 62
    18
420
        0
370
    25
100
AcDbSpline
210
0.0
220
0.0
230
1.0
 70
     9
 71
     3
 72
    53
 73
    49
 74
     0
 42
0.0000000001
 43
0.0000000001
 40
0.0
 40
0.0
 40
0.0
 40
0.0
 40
1.0
 40
1.0
 40
1.0
 40
2.0
 40
2.0
 40
2.0
 40
3.0
 40
3.0
 40
3.0
 40
4.0
 40
4.0
 40
4.0
 40
5.0
 40
5.0
 40
5.0
 40
6.0
 40
6.0
 40
6.0
 40
7.0
 40
7.0
 40
7.0
 40
8.0
 40
8.0
 40
8.0
 40
9.0
 40
9.0
 40
9.0
 40
10.0
 40
10.0
 40
10.0
 40
11.0
 40
11.0
 40
11.0
 40
12.0
 40
12.0
 40
12.0
 40
13.0
 40
13.0
 40
13.0
 40
14.0
 40
14.0
 40
14.0
 40
15.0
 40
15.0
 40
15.0
 40
16.0
 40
16.0
 40
16.0
 40
16.0
 10
6.703203461601863
 20
7.075251071167738
 30
0.0
 10
7.191353241102129
 20
7.095835492602923
 30
0.0
 10
7.582466145251979
 20
7.486733551617008
 30
0.0
 10
7.603318786412146
 20
7.974871946940133
 30
0.0
 10
7.603318786412146
 20
7.974871946940133
 30
0.0
 10
7.45670797511669
 20
7.974992783970415
 30
0.0
 10
7.45670797511669
 20
7.974992783970415
 30
0.0
 10
7.45670797511669
 20
7.974992783970415
 30
0.0
 10
7.456321255225197
 20
12.86747183938731
 30
0.0
 10
7.456321255225197
 20
12.86747183938731
 30
0.0
 10
7.456321255225197
 20
12.86747183938731
 30
0.0
 10
7.602959952015857
 20
12.86751212602265
 30
0.0
 10
7.602959952015857
 20
12.86751212602265
 30
0.0
 10
7.582375530580671
 20
13.35566190552294
 30
0.0
 10
7.191477471566561
 20
13.74677480967279
 30
0.0
 10
6.703339076243436
 20
13.76762745083295
 30
0.0
 10
6.703339076243436
 20
13.76762745083295
 30
0.0
 10
6.703218239213153
 20
13.6210166395288
 30
0.0
 10
6.703218239213153
 20
13.6210166395288
 30
0.0
 10
6.703218239213153
 20
13.6210166395288
 30
0.0
 10
1.810725713817974
 20
13.62062991965468
 30
0.0
 10
1.810725713817974
 20
13.62062991965468
 30
0.0
 10
1.810725713817974
 20
13.62062991965468
 30
0.0
 10
1.810685427182647
 20
13.76726861643664
 30
0.0
 10
1.810685427182647
 20
13.76726861643664
 30
0.0
 10
1.322535647682368
 20
13.74668419500146
 30
0.0
 10
0.9314227435325189
 20
13.35578613598736
 30
0.0
 10
0.9105701023723389
 20
12.86764774066425
 30
0.0
 10
0.9105701023723389
 20
12.86764774066425
 30
0.0
 10
1.057180913667808
 20
12.86752690363394
 30
0.0
 10
1.057180913667808
 20
12.86752690363394
 30
0.0
 10
1.057180913667808
 20
12.86752690363394
 30
0.0
 10
1.057567633559301
 20
7.975047848217059
 30
0.0
 10
1.057567633559301
 20
7.975047848217059
 30
0.0
 10
1.057567633559301
 20
7.975047848217059
 30
0.0
 10
0.9109289367686541
 20
7.975007561581719
 30
0.0
 10
0.9109289367686541
 20
7.975007561581719
 30
0.0
 10
0.9315133582038267
 20
7.48685778208144
 30
0.0
 10
1.322411417217937
 20
7.095744877931577
 30
0.0
 10
1.810549812541062
 20
7.074892236771423
 30
0.0
 10
1.810549812541062
 20
7.074892236771423
 30
0.0
 10
1.810670649571357
 20
7.221503048075582
 30
0.0
 10
1.810670649571357
 20
7.221503048075582
 30
0.0
 10
1.810670649571357
 20
7.221503048075582
 30
0.0
 10
6.703163174966523
 20
7.221889767949694
 30
0.0
 10
6.703163174966523
 20
7.221889767949694
 30
0.0
 10
6.703163174966523
 20
7.221889767949694
 30
0.0
 10
6.703203461601863
 20
7.075251071167738
 30
0.0
 10
6.703203461601863
 20
7.075251071167738
 30
0.0
  0
CIRCLE
  5
8B
330
70
100
AcDbEntity
  8
0
 62
    18
420
        0
370
    25
100
AcDbCircle
 10
1.30786160453249
 20
7.472101175732657
 30
0.0
 40
0.1471850394068749
  0
CIRCLE
  5
8C
330
70
100
AcDbEntity
  8
0
 62
    18
420
        0
370
    25
100
AcDbCircle
 10
1.307779041333585
 20
13.3703359486728
 30
0.0
 40
0.1471850394068749
  0
CIRCLE
  5
8D
330
70
100
AcDbEntity
  8
0
 62
    18
420
        0
370
    25
100
AcDbCircle
 10
7.206027284252008
 20
13.37041851187172
 30
0.0
 40
0.1471850394068702
  0
CIRCLE
  5
8E
330
70
100
AcDbEntity
  8
0
 62
    18
420
        0
370
    25
100
AcDbCircle
 10
7.206109847450912
 20
7.472183738931565
 30
0.0
 40
0.1471850394068797
  0
LWPOLYLINE
  5
8F
330
70
100
AcDbEntity
  8
0
 62
    18
420
        0
370
    25
100
AcDbPolyline
 90
        4
 70
     1
 43
0.0
 10
3.750728553147584
 20
0.6163858037918999
 10
4.728385481874308
 20
0.6163858037918999
 10
4.728385481874308
 20
-0.0560471907520474
 10
3.750728553147584
 20
-0.0560471907520474
  0
CIRCLE
  5
90
330
70
100
AcDbEntity
  8
0
 62
    18
420
        0
370
    25
100
AcDbCircle
 10
3.750728553147581
 20
0.6163858037918999
 30
0.0
 40
0.075196850412496
  0
CIRCLE
  5
91
330
70
100
AcDbEntity
  8
0
 62
    18
420
        0
370
    25
100
AcDbCircle
 10
4.728385481874302
 20
0.6163858037918999
 30
0.0
 40
0.0751968504125008
  0
CIRCLE
  5
92
330
70
100
AcDbEntity
  8
0
 62
    18
420
        0
370
    25
100
AcDbCircle
 10
4.728385481874302
 20
-0.0560471907520474
 30
0.0
 40
0.0751968504125008
  0
CIRCLE
  5
93
330
70
100
AcDbEntity
  8
0
 62
    18
420
        0
370
    25
100
AcDbCircle
 10
3.750728553147581
 20
-0.0560471907520474
 30
0.0
 40
0.075196850412496
  0
CIRCLE
  5
94
330
70
100
AcDbEntity
  8
0
 62
    18
420
        0
370
    25
100
AcDbCircle
 10
16.15581336614115
 20
6.932532810139472
 30
0.0
 40
0.7090000001772411
  0
SPLINE
  5
95
330
70
100
AcDbEntity
  8
0
 62
    18
420
        0
370
    25
100
AcDbSpline
210
0.0
220
0.0
230
1.0
 70
     9
 71
     3
 72
    29
 73
    25
 74
     0
 42
0.0000000001
 43
0.0000000001
 40
0.0
 40
0.0
 40
0.0
 40
0.0
 40
1.0
 40
1.0
 40
1.0
 40
2.0
 40
2.0
 40
2.0
 40
3.0
 40
3.0
 40
3.0
 40
4.0
 40
4.0
 40
4.0
 40
5.0
 40
5.0
 40
5.0
 40
6.0
 40
6.0
 40
6.0
 40
7.0
 40
7.0
 40
7.0
 40
8.0
 40
8.0
 40
8.0
 40
8.0
 10
18.56292973580639
 20
10.48156633235593
 30
0.0
 10
18.56292973580639
 20
10.48156633235593
 30
0.0
 10
13.74888552786488
 20
10.48118587276737
 30
0.0
 10
13.74888552786488
 20
10.48118587276737
 30
0.0
 10
13.12114298658197
 20
10.48102191484207
 30
0.0
 10
12.61221002415674
 20
9.972343604246423
 30
0.0
 10
12.61173188778154
 20
9.344601223644163
 30
0.0
 10
12.61173188778154
 20
9.344601223644163
 30
0.0
 10
12.61211234726574
 20
4.530570485680931
 30
0.0
 10
12.61211234726574
 20
4.530570485680931
 30
0.0
 10
12.61227630520066
 20
3.902827944354005
 30
0.0
 10
13.12095461582958
 20
3.393894981895502
 30
0.0
 10
13.74869699647583
 20
3.393416845510677
 30
0.0
 10
13.74869699647583
 20
3.393416845510677
 30
0.0
 10
18.56274120441743
 20
3.393797305099218
 30
0.0
 10
18.56274120441743
 20
3.393797305099218
 30
0.0
 10
19.19048374575798
 20
3.393961263024569
 30
0.0
 10
19.69941670822989
 20
3.902639573666874
 30
0.0
 10
19.69989484460514
 20
4.53038195432671
 30
0.0
 10
19.69989484460514
 20
4.53038195432671
 30
0.0
 10
19.69951438501655
 20
9.344412692290044
 30
0.0
 10
19.69951438501655
 20
9.344412692290044
 30
0.0
 10
19.6993504270528
 20
9.97215523358817
 30
0.0
 10
19.19067211642386
 20
10.48108819599996
 30
0.0
 10
18.56292973580639
 20
10.48156633235593
 30
0.0
  0
CIRCLE
  5
96
330
70
100
AcDbEntity
  8
0
 62
    18
420
        0
370
    25
100
AcDbCircle
 10
16.15581336614115
 20
6.932532810139472
 30
0.0
 40
0.7090000001772411
  0
SPLINE
  5
97
330
70
100
AcDbEntity
  8
0
 62
    18
420
        0
370
    25
100
AcDbSpline
210
0.0
220
0.0
230
1.0
 70
     9
 71
     3
 72
    29
 73
    25
 74
     0
 42
0.0000000001
 43
0.0000000001
 40
0.0
 40
0.0
 40
0.0
 40
0.0
 40
1.0
 40
1.0
 40
1.0
 40
2.0
 40
2.0
 40
2.0
 40
3.0
 40
3.0
 40
3.0
 40
4.0
 40
4.0
 40
4.0
 40
5.0
 40
5.0
 40
5.0
 40
6.0
 40
6.0
 40
6.0
 40
7.0
 40
7.0
 40
7.0
 40
8.0
 40
8.0
 40
8.0
 40
8.0
 10
18.56292973580639
 20
10.48156633235593
 30
0.0
 10
18.56292973580639
 20
10.48156633235593
 30
0.0
 10
13.74888552786488
 20
10.48118587276737
 30
0.0
 10
13.74888552786488
 20
10.48118587276737
 30
0.0
 10
13.12114298658197
 20
10.48102191484207
 30
0.0
 10
12.61221002415674
 20
9.972343604246423
 30
0.0
 10
12.61173188778154
 20
9.344601223644163
 30
0.0
 10
12.61173188778154
 20
9.344601223644163
 30
0.0
 10
12.61211234726574
 20
4.530570485680931
 30
0.0
 10
12.61211234726574
 20
4.530570485680931
 30
0.0
 10
12.61227630520066
 20
3.902827944354005
 30
0.0
 10
13.12095461582958
 20
3.393894981895502
 30
0.0
 10
13.74869699647583
 20
3.393416845510677
 30
0.0
 10
13.74869699647583
 20
3.393416845510677
 30
0.0
 10
18.56274120441743
 20
3.393797305099218
 30
0.0
 10
18.56274120441743
 20
3.393797305099218
 30
0.0
 10
19.19048374575798
 20
3.393961263024569
 30
0.0
 10
19.69941670822989
 20
3.902639573666874
 30
0.0
 10
19.69989484460514
 20
4.53038195432671
 30
0.0
 10
19.69989484460514
 20
4.53038195432671
 30
0.0
 10
19.69951438501655
 20
9.344412692290044
 30
0.0
 10
19.69951438501655
 20
9.344412692290044
 30
0.0
 10
19.6993504270528
 20
9.97215523358817
 30
0.0
 10
19.19067211642386
 20
10.48108819599996
 30
0.0
 10
18.56292973580639
 20
10.48156633235593
 30
0.0
  0
LINE
  5
98
330
70
100
AcDbEntity
  8
0
 62
     1
420
 16711680
370
    25
100
AcDbLine
 10
12.61173188783371
 20
10.48156530329527
 30
0.0
 11
19.69989484465731
 21
10.48156530329527
 31
0.0
  0
LINE
  5
99
330
70
100
AcDbEntity
  8
0
 62
     1
420
 16711680
370
    25
100
AcDbLine
 10
12.61173188783371
 20
10.35598743886909
 30
0.0
 11
19.69989484465731
 21
10.35598743886909
 31
0.0
  0
LINE
  5
9A
330
70
100
AcDbEntity
  8
0
 62
     1
420
 16711680
370
    25
100
AcDbLine
 10
12.61173188783371
 20
10.23040957444291
 30
0.0
 11
19.69989484465731
 21
10.23040957444291
 31
0.0
  0
LINE
  5
9B
330
70
100
AcDbEntity
  8
0
 62
     1
420
 16711680
370
    25
100
AcDbLine
 10
12.61173188783371
 20
10.10483171001673
 30
0.0
 11
19.69989484465731
 21
10.10483171001673
 31
0.0
  0
LINE
  5
9C
330
70
100
AcDbEntity
  8
0
 62
     1
420
 16711680
370
    25
100
AcDbLine
 10
12.61173188778154
 20
9.983383295007923
 30
0.0
 11
19.69989484460514
 21
9.983383295007923
 31
0.0
  0
LINE
  5
9D
330
70
100
AcDbEntity
  8
0
 62
     1
420
 16711680
370
    25
100
AcDbLine
 10
12.61173188778154
 20
9.857805430581745
 30
0.0
 11
19.69989484460514
 21
9.857805430581745
 31
0.0
  0
LINE
  5
9E
330
70
100
AcDbEntity
  8
0
 62
     1
420
 16711680
370
    25
100
AcDbLine
 10
12.61173188778154
 20
9.732227566155566
 30
0.0
 11
19.69989484460514
 21
9.732227566155566
 31
0.0
  0
LINE
  5
9F
330
70
100
AcDbEntity
  8
0
 62
     1
420
 16711680
370
    25
100
AcDbLine
 10
12.61173188778154
 20
9.606649701729388
 30
0.0
 11
19.69989484460514
 21
9.606649701729388
 31
0.0
  0
LINE
  5
A0
330
70
100
AcDbEntity
  8
0
 62
     1
420
 16711680
370
    25
100
AcDbLine
 10
12.61173188785978
 20
9.485459192706558
 30
0.0
 11
19.69989484468338
 21
9.485459192706558
 31
0.0
  0
LINE
  5
A1
330
70
100
AcDbEntity
  8
0
 62
     1
420
 16711680
370
    25
100
AcDbLine
 10
12.61173188785978
 20
9.35988132828038
 30
0.0
 11
19.69989484468338
 21
9.35988132828038
 31
0.0
  0
LINE
  5
A2
330
70
100
AcDbEntity
  8
0
 62
     1
420
 16711680
370
    25
100
AcDbLine
 10
12.61173188785978
 20
9.234303463854201
 30
0.0
 11
19.69989484468338
 21
9.234303463854201
 31
0.0
  0
LINE
  5
A3
330
70
100
AcDbEntity
  8
0
 62
     1
420
 16711680
370
    25
100
AcDbLine
 10
12.61173188785978
 20
9.108725599428023
 30
0.0
 11
19.69989484468338
 21
9.108725599428023
 31
0.0
  0
LINE
  5
A4
330
70
100
AcDbEntity
  8
0
 62
     1
420
 16711680
370
    25
100
AcDbLine
 10
12.61173188780761
 20
8.987277184419212
 30
0.0
 11
19.69989484463122
 21
8.987277184419212
 31
0.0
  0
LINE
  5
A5
330
70
100
AcDbEntity
  8
0
 62
     1
420
 16711680
370
    25
100
AcDbLine
 10
12.61173188780761
 20
8.861699319993034
 30
0.0
 11
19.69989484463122
 21
8.861699319993034
 31
0.0
  0
LINE
  5
A6
330
70
100
AcDbEntity
  8
0
 62
     1
420
 16711680
370
    25
100
AcDbLine
 10
12.61173188780761
 20
8.736121455566856
 30
0.0
 11
19.69989484463122
 21
8.736121455566856
 31
0.0
  0
LINE
  5
A7
330
70
100
AcDbEntity
  8
0
 62
     1
420
 16711680
370
    25
100
AcDbLine
 10
12.61173188780761
 20
8.610543591140677
 30
0.0
 11
19.69989484463122
 21
8.610543591140677
 31
0.0
  0
LINE
  5
A8
330
70
100
AcDbEntity
  8
0
 62
     1
420
 16711680
370
    25
100
AcDbLine
 10
12.61173188787282
 20
8.484965726714499
 30
0.0
 11
19.69989484469642
 21
8.484965726714499
 31
0.0
  0
LINE
  5
A9
330
70
100
AcDbEntity
  8
0
 62
     1
420
 16711680
370
    25
100
AcDbLine
 10
12.61173188787282
 20
8.35938786228832
 30
0.0
 11
19.69989484469642
 21
8.35938786228832
 31
0.0
  0
LINE
  5
AA
330
70
100
AcDbEntity
  8
0
 62
     1
420
 16711680
370
    25
100
AcDbLine
 10
12.61173188787282
 20
8.233809997862142
 30
0.0
 11
19.69989484469642
 21
8.233809997862142
 31
0.0
  0
LINE
  5
AB
330
70
100
AcDbEntity
  8
0
 62
     1
420
 16711680
370
    25
100
AcDbLine
 10
12.61173188787282
 20
8.108232133435965
 30
0.0
 11
19.69989484469642
 21
8.108232133435965
 31
0.0
  0
LINE
  5
AC
330
70
100
AcDbEntity
  8
0
 62
     1
420
 16711680
370
    25
100
AcDbLine
 10
12.61173188782065
 20
7.986783718427154
 30
0.0
 11
19.69989484464425
 21
7.986783718427154
 31
0.0
  0
LINE
  5
AD
330
70
100
AcDbEntity
  8
0
 62
     1
420
 16711680
370
    25
100
AcDbLine
 10
12.61173188782065
 20
7.861205854000975
 30
0.0
 11
19.69989484464425
 21
7.861205854000975
 31
0.0
  0
LINE
  5
AE
330
70
100
AcDbEntity
  8
0
 62
     1
420
 16711680
370
    25
100
AcDbLine
 10
12.61173188782065
 20
7.735627989574797
 30
0.0
 11
19.69989484464425
 21
7.735627989574797
 31
0.0
  0
LINE
  5
AF
330
70
100
AcDbEntity
  8
0
 62
     1
420
 16711680
370
    25
100
AcDbLine
 10
12.61173188782065
 20
7.610050125148618
 30
0.0
 11
19.69989484464425
 21
7.610050125148618
 31
0.0
  0
LINE
  5
B0
330
70
100
AcDbEntity
  8
0
 62
     1
420
 16711680
370
    25
100
AcDbLine
 10
12.61173188789889
 20
7.488859616125788
 30
0.0
 11
19.69989484472249
 21
7.488859616125788
 31
0.0
  0
LINE
  5
B1
330
70
100
AcDbEntity
  8
0
 62
     1
420
 16711680
370
    25
100
AcDbLine
 10
12.61173188789889
 20
7.363281751699609
 30
0.0
 11
19.69989484472249
 21
7.363281751699609
 31
0.0
  0
LINE
  5
B2
330
70
100
AcDbEntity
  8
0
 62
     1
420
 16711680
370
    25
100
AcDbLine
 10
12.61173188789889
 20
7.237703887273432
 30
0.0
 11
19.69989484472249
 21
7.237703887273432
 31
0.0
  0
LINE
  5
B3
330
70
100
AcDbEntity
  8
0
 62
     1
420
 16711680
370
    25
100
AcDbLine
 10
12.61173188789889
 20
7.112126022847253
 30
0.0
 11
19.69989484472249
 21
7.112126022847253
 31
0.0
  0
LINE
  5
B4
330
70
100
AcDbEntity
  8
0
 62
     1
420
 16711680
370
    25
100
AcDbLine
 10
12.61173188784672
 20
6.990677607838442
 30
0.0
 11
19.69989484467032
 21
6.990677607838442
 31
0.0
  0
LINE
  5
B5
330
70
100
AcDbEntity
  8
0
 62
     1
420
 16711680
370
    25
100
AcDbLine
 10
12.61173188784672
 20
6.865099743412264
 30
0.0
 11
19.69989484467032
 21
6.865099743412264
 31
0.0
  0
LINE
  5
B6
330
70
100
AcDbEntity
  8
0
 62
     1
420
 16711680
370
    25
100
AcDbLine
 10
12.61173188784672
 20
6.739521878986086
 30
0.0
 11
19.69989484467032
 21
6.739521878986086
 31
0.0
  0
LINE
  5
B7
330
70
100
AcDbEntity
  8
0
 62
     1
420
 16711680
370
    25
100
AcDbLine
 10
12.61173188784672
 20
6.613944014559907
 30
0.0
 11
19.69989484467032
 21
6.613944014559907
 31
0.0
  0
LINE
  5
B8
330
70
100
AcDbEntity
  8
0
 62
     1
420
 16711680
370
    25
100
AcDbLine
 10
12.61173188789237
 20
6.488366150133729
 30
0.0
 11
19.69989484471597
 21
6.488366150133729
 31
0.0
  0
LINE
  5
B9
330
70
100
AcDbEntity
  8
0
 62
     1
420
 16711680
370
    25
100
AcDbLine
 10
12.61173188789237
 20
6.362788285707551
 30
0.0
 11
19.69989484471597
 21
6.362788285707551
 31
0.0
  0
LINE
  5
BA
330
70
100
AcDbEntity
  8
0
 62
     1
420
 16711680
370
    25
100
AcDbLine
 10
12.61173188789237
 20
6.237210421281373
 30
0.0
 11
19.69989484471597
 21
6.237210421281373
 31
0.0
  0
LINE
  5
BB
330
70
100
AcDbEntity
  8
0
 62
     1
420
 16711680
370
    25
100
AcDbLine
 10
12.61173188789237
 20
6.111632556855195
 30
0.0
 11
19.69989484471597
 21
6.111632556855195
 31
0.0
  0
LINE
  5
BC
330
70
100
AcDbEntity
  8
0
 62
     1
420
 16711680
370
    25
100
AcDbLine
 10
12.6117318878402
 20
5.990184141846384
 30
0.0
 11
19.6998948446638
 21
5.990184141846384
 31
0.0
  0
LINE
  5
BD
330
70
100
AcDbEntity
  8
0
 62
     1
420
 16711680
370
    25
100
AcDbLine
 10
12.6117318878402
 20
5.864606277420206
 30
0.0
 11
19.6998948446638
 21
5.864606277420206
 31
0.0
  0
LINE
  5
BE
330
70
100
AcDbEntity
  8
0
 62
     1
420
 16711680
370
    25
100
AcDbLine
 10
12.6117318878402
 20
5.739028412994027
 30
0.0
 11
19.6998948446638
 21
5.739028412994027
 31
0.0
  0
LINE
  5
BF
330
70
100
AcDbEntity
  8
0
 62
     1
420
 16711680
370
    25
100
AcDbLine
 10
12.6117318878402
 20
5.613450548567849
 30
0.0
 11
19.6998948446638
 21
5.613450548567849
 31
0.0
  0
LINE
  5
C0
330
70
100
AcDbEntity
  8
0
 62
     1
420
 16711680
370
    25
100
AcDbLine
 10
12.61173188791844
 20
5.492260039545018
 30
0.0
 11
19.69989484474204
 21
5.492260039545018
 31
0.0
  0
LINE
  5
C1
330
70
100
AcDbEntity
  8
0
 62
     1
420
 16711680
370
    25
100
AcDbLine
 10
12.61173188791844
 20
5.366682175118866
 30
0.0
 11
19.69989484474204
 21
5.366682175118866
 31
0.0
  0
LINE
  5
C2
330
70
100
AcDbEntity
  8
0
 62
     1
420
 16711680
370
    25
100
AcDbLine
 10
12.61173188791844
 20
5.241104310692662
 30
0.0
 11
19.69989484474204
 21
5.241104310692662
 31
0.0
  0
LINE
  5
C3
330
70
100
AcDbEntity
  8
0
 62
     1
420
 16711680
370
    25
100
AcDbLine
 10
12.61173188791844
 20
5.115526446266509
 30
0.0
 11
19.69989484474204
 21
5.115526446266509
 31
0.0
  0
LINE
  5
C4
330
70
100
AcDbEntity
  8
0
 62
     1
420
 16711680
370
    25
100
AcDbLine
 10
12.61173188786627
 20
4.994078031257686
 30
0.0
 11
19.69989484468988
 21
4.994078031257686
 31
0.0
  0
LINE
  5
C5
330
70
100
AcDbEntity
  8
0
 62
     1
420
 16711680
370
    25
100
AcDbLine
 10
12.61173188786627
 20
4.868500166831482
 30
0.0
 11
19.69989484468988
 21
4.868500166831482
 31
0.0
  0
LINE
  5
C6
330
70
100
AcDbEntity
  8
0
 62
     1
420
 16711680
370
    25
100
AcDbLine
 10
12.61173188786627
 20
4.742922302405329
 30
0.0
 11
19.69989484468988
 21
4.742922302405329
 31
0.0
  0
LINE
  5
C7
330
70
100
AcDbEntity
  8
0
 62
     1
420
 16711680
370
    25
100
AcDbLine
 10
12.61173188786627
 20
4.617344437979125
 30
0.0
 11
19.69989484468988
 21
4.617344437979125
 31
0.0
  0
LINE
  5
C8
330
70
100
AcDbEntity
  8
0
 62
     1
420
 16711680
370
    25
100
AcDbLine
 10
12.61173188793148
 20
4.491766573552973
 30
0.0
 11
19.69989484475508
 21
4.491766573552973
 31
0.0
  0
LINE
  5
C9
330
70
100
AcDbEntity
  8
0
 62
     1
420
 16711680
370
    25
100
AcDbLine
 10
12.61173188793148
 20
4.366188709126769
 30
0.0
 11
19.69989484475508
 21
4.366188709126769
 31
0.0
  0
LINE
  5
CA
330
70
100
AcDbEntity
  8
0
 62
     1
420
 16711680
370
    25
100
AcDbLine
 10
12.61173188793148
 20
4.240610844700616
 30
0.0
 11
19.69989484475508
 21
4.240610844700616
 31
0.0
  0
LINE
  5
CB
330
70
100
AcDbEntity
  8
0
 62
     1
420
 16711680
370
    25
100
AcDbLine
 10
12.61173188793148
 20
4.115032980274412
 30
0.0
 11
19.69989484475508
 21
4.115032980274412
 31
0.0
  0
LINE
  5
CC
330
70
100
AcDbEntity
  8
0
 62
     1
420
 16711680
370
    25
100
AcDbLine
 10
12.61173188787931
 20
3.993584565265639
 30
0.0
 11
19.69989484470291
 21
3.993584565265639
 31
0.0
  0
LINE
  5
CD
330
70
100
AcDbEntity
  8
0
 62
     1
420
 16711680
370
    25
100
AcDbLine
 10
12.61173188787931
 20
3.868006700839436
 30
0.0
 11
19.69989484470291
 21
3.868006700839436
 31
0.0
  0
LINE
  5
CE
330
70
100
AcDbEntity
  8
0
 62
     1
420
 16711680
370
    25
100
AcDbLine
 10
12.61173188787931
 20
3.742428836413283
 30
0.0
 11
19.69989484470291
 21
3.742428836413283
 31
0.0
  0
LINE
  5
CF
330
70
100
AcDbEntity
  8
0
 62
     1
420
 16711680
370
    25
100
AcDbLine
 10
12.61173188787931
 20
3.61685097198708
 30
0.0
 11
19.69989484470291
 21
3.61685097198708
 31
0.0
  0
LINE
  5
D0
330
70
100
AcDbEntity
  8
0
 62
     1
420
 16711680
370
    25
100
AcDbLine
 10
12.61173188795755
 20
3.495660462964274
 30
0.0
 11
19.69989484478115
 21
3.495660462964274
 31
0.0
  0
LINE
  5
D1
330
70
100
AcDbEntity
  8
0
 62
     1
420
 16711680
370
    25
100
AcDbLine
 10
12.61173188795755
 20
3.397860376315848
 30
0.0
 11
19.69989484478115
 21
3.397860376315848
 31
0.0
  0
LINE
  5
D2
330
70
100
AcDbEntity
  8
0
 62
     1
420
 16711680
370
    25
100
AcDbLine
 10
12.61173291334429
 20
3.393402346471753
 30
0.0
 11
12.61173188778154
 21
10.48156530329527
 31
0.0
  0
LINE
  5
D3
330
70
100
AcDbEntity
  8
0
 62
     1
420
 16711680
370
    25
100
AcDbLine
 10
12.73731077777046
 20
3.393402364641183
 30
0.0
 11
12.73730975220772
 21
10.48156532146471
 31
0.0
  0
LINE
  5
D4
330
70
100
AcDbEntity
  8
0
 62
     1
420
 16711680
370
    25
100
AcDbLine
 10
12.86288864219667
 20
3.393402382810613
 30
0.0
 11
12.86288761663392
 21
10.48156533963415
 31
0.0
  0
LINE
  5
D5
330
70
100
AcDbEntity
  8
0
 62
     1
420
 16711680
370
    25
100
AcDbLine
 10
12.98846650662285
 20
3.393402400980094
 30
0.0
 11
12.9884654810601
 21
10.4815653578036
 31
0.0
  0
LINE
  5
D6
330
70
100
AcDbEntity
  8
0
 62
     1
420
 16711680
370
    25
100
AcDbLine
 10
13.10991492163164
 20
3.393402418499893
 30
0.0
 11
13.10991389606887
 21
10.4815653753234
 31
0.0
  0
LINE
  5
D7
330
70
100
AcDbEntity
  8
0
 62
     1
420
 16711680
370
    25
100
AcDbLine
 10
13.23549278605782
 20
3.393402436669323
 30
0.0
 11
13.23549176049505
 21
10.48156539349284
 31
0.0
  0
LINE
  5
D8
330
70
100
AcDbEntity
  8
0
 62
     1
420
 16711680
370
    25
100
AcDbLine
 10
13.36107065048398
 20
3.393402454838754
 30
0.0
 11
13.36106962492123
 21
10.48156541166228
 31
0.0
  0
LINE
  5
D9
330
70
100
AcDbEntity
  8
0
 62
     1
420
 16711680
370
    25
100
AcDbLine
 10
13.48664851491018
 20
3.393402473008235
 30
0.0
 11
13.48664748934743
 21
10.48156542983172
 31
0.0
  0
LINE
  5
DA
330
70
100
AcDbEntity
  8
0
 62
     1
420
 16711680
370
    25
100
AcDbLine
 10
13.60783902393301
 20
3.393402490621105
 30
0.0
 11
13.60783799837024
 21
10.48156544744463
 31
0.0
  0
LINE
  5
DB
330
70
100
AcDbEntity
  8
0
 62
     1
420
 16711680
370
    25
100
AcDbLine
 10
13.73341688835919
 20
3.393402508790535
 30
0.0
 11
13.73341586279641
 21
10.48156546561407
 31
0.0
  0
LINE
  5
DC
330
70
100
AcDbEntity
  8
0
 62
     1
420
 16711680
370
    25
100
AcDbLine
 10
13.85899475278534
 20
3.393402526960016
 30
0.0
 11
13.85899372722259
 21
10.48156548378352
 31
0.0
  0
LINE
  5
DD
330
70
100
AcDbEntity
  8
0
 62
     1
420
 16711680
370
    25
100
AcDbLine
 10
13.98457261721152
 20
3.393402545129447
 30
0.0
 11
13.98457159164877
 21
10.48156550195296
 31
0.0
  0
LINE
  5
DE
330
70
100
AcDbEntity
  8
0
 62
     1
420
 16711680
370
    25
100
AcDbLine
 10
14.10602103222034
 20
3.393402562649245
 30
0.0
 11
14.10602000665759
 21
10.48156551947276
 31
0.0
  0
LINE
  5
DF
330
70
100
AcDbEntity
  8
0
 62
     1
420
 16711680
370
    25
100
AcDbLine
 10
14.23159889664652
 20
3.393402580818676
 30
0.0
 11
14.23159787108375
 21
10.4815655376422
 31
0.0
  0
LINE
  5
E0
330
70
100
AcDbEntity
  8
0
 62
     1
420
 16711680
370
    25
100
AcDbLine
 10
14.3571767610727
 20
3.393402598988106
 30
0.0
 11
14.35717573550993
 21
10.48156555581164
 31
0.0
  0
LINE
  5
E1
330
70
100
AcDbEntity
  8
0
 62
     1
420
 16711680
370
    25
100
AcDbLine
 10
14.48275462549888
 20
3.393402617157587
 30
0.0
 11
14.48275359993613
 21
10.48156557398109
 31
0.0
  0
LINE
  5
E2
330
70
100
AcDbEntity
  8
0
 62
     1
420
 16711680
370
    25
100
AcDbLine
 10
14.60833248992503
 20
3.393402635392198
 30
0.0
 11
14.60833146436228
 21
10.48156559221574
 31
0.0
  0
LINE
  5
E3
330
70
100
AcDbEntity
  8
0
 62
     1
420
 16711680
370
    25
100
AcDbLine
 10
14.73391035435123
 20
3.393402653561679
 30
0.0
 11
14.73390932878849
 21
10.48156561038518
 31
0.0
  0
LINE
  5
E4
330
70
100
AcDbEntity
  8
0
 62
     1
420
 16711680
370
    25
100
AcDbLine
 10
14.85948821877741
 20
3.393402671731109
 30
0.0
 11
14.85948719321464
 21
10.48156562855462
 31
0.0
  0
LINE
  5
E5
330
70
100
AcDbEntity
  8
0
 62
     1
420
 16711680
370
    25
100
AcDbLine
 10
14.98506608320359
 20
3.39340268990054
 30
0.0
 11
14.98506505764082
 21
10.48156564672407
 31
0.0
  0
LINE
  5
E6
330
70
100
AcDbEntity
  8
0
 62
     1
420
 16711680
370
    25
100
AcDbLine
 10
15.10651449821241
 20
3.393402707420338
 30
0.0
 11
15.10651347264964
 21
10.48156566424387
 31
0.0
  0
LINE
  5
E7
330
70
100
AcDbEntity
  8
0
 62
     1
420
 16711680
370
    25
100
AcDbLine
 10
15.23209236263857
 20
3.393402725589769
 30
0.0
 11
15.23209133707582
 21
10.48156568241331
 31
0.0
  0
LINE
  5
E8
330
70
100
AcDbEntity
  8
0
 62
     1
420
 16711680
370
    25
100
AcDbLine
 10
15.35767022706474
 20
3.393402743759249
 30
0.0
 11
15.357669201502
 21
10.48156570058275
 31
0.0
  0
LINE
  5
E9
330
70
100
AcDbEntity
  8
0
 62
     1
420
 16711680
370
    25
100
AcDbLine
 10
15.48324809149092
 20
3.39340276192868
 30
0.0
 11
15.48324706592818
 21
10.48156571875219
 31
0.0
  0
LINE
  5
EA
330
70
100
AcDbEntity
  8
0
 62
     1
420
 16711680
370
    25
100
AcDbLine
 10
15.60443860051375
 20
3.39340277954155
 30
0.0
 11
15.60443757495098
 21
10.48156573636509
 31
0.0
  0
LINE
  5
EB
330
70
100
AcDbEntity
  8
0
 62
     1
420
 16711680
370
    25
100
AcDbLine
 10
15.73001646493993
 20
3.393402797711031
 30
0.0
 11
15.73001543937718
 21
10.48156575453454
 31
0.0
  0
LINE
  5
EC
330
70
100
AcDbEntity
  8
0
 62
     1
420
 16711680
370
    25
100
AcDbLine
 10
15.85559432936611
 20
3.393402815880461
 30
0.0
 11
15.85559330380336
 21
10.48156577270398
 31
0.0
  0
LINE
  5
ED
330
70
100
AcDbEntity
  8
0
 62
     1
420
 16711680
370
    25
100
AcDbLine
 10
15.98117219379229
 20
3.393402834049892
 30
0.0
 11
15.98117116822954
 21
10.48156579087343
 31
0.0
  0
LINE
  5
EE
330
70
100
AcDbEntity
  8
0
 62
     1
420
 16711680
370
    25
100
AcDbLine
 10
16.10262060880109
 20
3.39340285156969
 30
0.0
 11
16.10261958323831
 21
10.48156580839322
 31
0.0
  0
LINE
  5
EF
330
70
100
AcDbEntity
  8
0
 62
     1
420
 16711680
370
    25
100
AcDbLine
 10
16.22819847322726
 20
3.393402869739171
 30
0.0
 11
16.22819744766449
 21
10.48156582656266
 31
0.0
  0
LINE
  5
F0
330
70
100
AcDbEntity
  8
0
 62
     1
420
 16711680
370
    25
100
AcDbLine
 10
16.35377633765344
 20
3.393402887908602
 30
0.0
 11
16.35377531209069
 21
10.48156584473212
 31
0.0
  0
LINE
  5
F1
330
70
100
AcDbEntity
  8
0
 62
     1
420
 16711680
370
    25
100
AcDbLine
 10
16.47935420207962
 20
3.393402906078032
 30
0.0
 11
16.47935317651687
 21
10.48156586290156
 31
0.0
  0
LINE
  5
F2
330
70
100
AcDbEntity
  8
0
 62
     1
420
 16711680
370
    25
100
AcDbLine
 10
16.6049320665058
 20
3.393402924293139
 30
0.0
 11
16.60493104094303
 21
10.48156588111667
 31
0.0
  0
LINE
  5
F3
330
70
100
AcDbEntity
  8
0
 62
     1
420
 16711680
370
    25
100
AcDbLine
 10
16.73050993093198
 20
3.39340294246257
 30
0.0
 11
16.7305089053692
 21
10.4815658992861
 31
0.0
  0
LINE
  5
F4
330
70
100
AcDbEntity
  8
0
 62
     1
420
 16711680
370
    25
100
AcDbLine
 10
16.85608779535815
 20
3.393402960632
 30
0.0
 11
16.85608676979538
 21
10.48156591745555
 31
0.0
  0
LINE
  5
F5
330
70
100
AcDbEntity
  8
0
 62
     1
420
 16711680
370
    25
100
AcDbLine
 10
16.98166565978433
 20
3.393402978801481
 30
0.0
 11
16.98166463422156
 21
10.481565935625
 31
0.0
  0
LINE
  5
F6
330
70
100
AcDbEntity
  8
0
 62
     1
420
 16711680
370
    25
100
AcDbLine
 10
17.10311407479313
 20
3.39340299632128
 30
0.0
 11
17.10311304923038
 21
10.48156595314478
 31
0.0
  0
LINE
  5
F7
330
70
100
AcDbEntity
  8
0
 62
     1
420
 16711680
370
    25
100
AcDbLine
 10
17.22869193921931
 20
3.39340301449071
 30
0.0
 11
17.22869091365656
 21
10.48156597131424
 31
0.0
  0
LINE
  5
F8
330
70
100
AcDbEntity
  8
0
 62
     1
420
 16711680
370
    25
100
AcDbLine
 10
17.35426980364549
 20
3.39340303266014
 30
0.0
 11
17.35426877808272
 21
10.48156598948368
 31
0.0
  0
LINE
  5
F9
330
70
100
AcDbEntity
  8
0
 62
     1
420
 16711680
370
    25
100
AcDbLine
 10
17.47984766807167
 20
3.393403050829622
 30
0.0
 11
17.47984664250889
 21
10.48156600765312
 31
0.0
  0
LINE
  5
FA
330
70
100
AcDbEntity
  8
0
 62
     1
420
 16711680
370
    25
100
AcDbLine
 10
17.6010381770945
 20
3.393403068442491
 30
0.0
 11
17.60103715153175
 21
10.481566025266
 31
0.0
  0
LINE
  5
FB
330
70
100
AcDbEntity
  8
0
 62
     1
420
 16711680
370
    25
100
AcDbLine
 10
17.72661604152068
 20
3.393403086611922
 30
0.0
 11
17.72661501595793
 21
10.48156604343545
 31
0.0
  0
LINE
  5
FC
330
70
100
AcDbEntity
  8
0
 62
     1
420
 16711680
370
    25
100
AcDbLine
 10
17.85219390594685
 20
3.393403104781352
 30
0.0
 11
17.85219288038408
 21
10.48156606160489
 31
0.0
  0
LINE
  5
FD
330
70
100
AcDbEntity
  8
0
 62
     1
420
 16711680
370
    25
100
AcDbLine
 10
17.97777177037303
 20
3.393403122950833
 30
0.0
 11
17.97777074481026
 21
10.48156607977434
 31
0.0
  0
LINE
  5
FE
330
70
100
AcDbEntity
  8
0
 62
     1
420
 16711680
370
    25
100
AcDbLine
 10
18.09922018538183
 20
3.393403140470632
 30
0.0
 11
18.09921915981906
 21
10.48156609729415
 31
0.0
  0
LINE
  5
FF
330
70
100
AcDbEntity
  8
0
 62
     1
420
 16711680
370
    25
100
AcDbLine
 10
18.22479804980801
 20
3.393403158640062
 30
0.0
 11
18.22479702424526
 21
10.48156611546359
 31
0.0
  0
LINE
  5
100
330
70
100
AcDbEntity
  8
0
 62
     1
420
 16711680
370
    25
100
AcDbLine
 10
18.35037591423419
 20
3.393403176809492
 30
0.0
 11
18.35037488867144
 21
10.48156613363304
 31
0.0
  0
LINE
  5
101
330
70
100
AcDbEntity
  8
0
 62
     1
420
 16711680
370
    25
100
AcDbLine
 10
18.47595377866039
 20
3.393403194978974
 30
0.0
 11
18.47595275309764
 21
10.48156615180247
 31
0.0
  0
LINE
  5
102
330
70
100
AcDbEntity
  8
0
 62
     1
420
 16711680
370
    25
100
AcDbLine
 10
18.60153164308654
 20
3.393403213213635
 30
0.0
 11
18.60153061752377
 21
10.48156617003712
 31
0.0
  0
LINE
  5
103
330
70
100
AcDbEntity
  8
0
 62
     1
420
 16711680
370
    25
100
AcDbLine
 10
18.72710950751275
 20
3.393403231383065
 30
0.0
 11
18.72710848194997
 21
10.48156618820657
 31
0.0
  0
LINE
  5
104
330
70
100
AcDbEntity
  8
0
 62
     1
420
 16711680
370
    25
100
AcDbLine
 10
18.85268737193888
 20
3.393403249552496
 30
0.0
 11
18.85268634637613
 21
10.48156620637601
 31
0.0
  0
LINE
  5
105
330
70
100
AcDbEntity
  8
0
 62
     1
420
 16711680
370
    25
100
AcDbLine
 10
18.97826523636511
 20
3.393403267721977
 30
0.0
 11
18.97826421080235
 21
10.48156622454545
 31
0.0
  0
LINE
  5
106
330
70
100
AcDbEntity
  8
0
 62
     1
420
 16711680
370
    25
100
AcDbLine
 10
19.09971365137388
 20
3.393403285241775
 30
0.0
 11
19.09971262581113
 21
10.48156624206525
 31
0.0
  0
LINE
  5
107
330
70
100
AcDbEntity
  8
0
 62
     1
420
 16711680
370
    25
100
AcDbLine
 10
19.22529151580008
 20
3.393403303411206
 30
0.0
 11
19.22529049023731
 21
10.4815662602347
 31
0.0
  0
LINE
  5
108
330
70
100
AcDbEntity
  8
0
 62
     1
420
 16711680
370
    25
100
AcDbLine
 10
19.35086938022623
 20
3.393403321580636
 30
0.0
 11
19.35086835466346
 21
10.48156627840414
 31
0.0
  0
LINE
  5
109
330
70
100
AcDbEntity
  8
0
 62
     1
420
 16711680
370
    25
100
AcDbLine
 10
19.47644724465243
 20
3.393403339750066
 30
0.0
 11
19.47644621908967
 21
10.48156629657359
 31
0.0
  0
LINE
  5
10A
330
70
100
AcDbEntity
  8
0
 62
     1
420
 16711680
370
    25
100
AcDbLine
 10
19.59763775367524
 20
3.393403357362987
 30
0.0
 11
19.59763672811249
 21
10.48156631418649
 31
0.0
  0
LINE
  5
10B
330
70
100
AcDbEntity
  8
0
 62
     1
420
 16711680
370
    25
100
AcDbLine
 10
19.70065837843552
 20
3.392841546396892
 30
0.0
 11
19.70065735287277
 21
10.48100450322041
 31
0.0
  0
ENDSEC
  0
SECTION
  2
OBJECTS
  0
DICTIONARY
  5
C
330
0
100
AcDbDictionary
281
     1
  3
ACAD_COLOR
350
63
  3
ACAD_DETAILVIEWSTYLE
350
6A
  3
ACAD_GROUP
350
D
  3
ACAD_LAYOUT
350
62
  3
ACAD_MATERIAL
350
10
  3
ACAD_MLEADERSTYLE
350
66
  3
ACAD_MLINESTYLE
350
5F
  3
ACAD_PLOTSETTINGS
350
61
  3
ACAD_PLOTSTYLENAME
350
E
  3
ACAD_SCALELIST
350
42
  3
ACAD_SECTIONVIEWSTYLE
350
68
  3
ACAD_TABLESTYLE
350
64
  3
ACAD_VISUALSTYLE
350
29
  3
ACDB_RECOMPOSE_DATA
350
114
  3
AcDbVariableDictionary
350
10C
  0
DICTIONARY
  5
63
102
{ACAD_REACTORS
330
C
102
}
330
C
100
AcDbDictionary
281
     1
  0
DICTIONARY
  5
6A
102
{ACAD_REACTORS
330
C
102
}
330
C
100
AcDbDictionary
281
     1
  3
Imperial24
350
6B
  0
DICTIONARY
  5
D
102
{ACAD_REACTORS
330
C
102
}
330
C
100
AcDbDictionary
281
     1
  0
DICTIONARY
  5
62
102
{ACAD_REACTORS
330
C
102
}
330
C
100
AcDbDictionary
281
     1
  3
Layout1
350
6F
  3
Layout2
350
77
  3
Model
350
73
  0
DICTIONARY
  5
10
102
{ACAD_REACTORS
330
C
102
}
330
C
100
AcDbDictionary
281
     1
  3
ByBlock
350
19
  3
ByLayer
350
11
  3
Global
350
21
  0
DICTIONARY
  5
66
102
{ACAD_REACTORS
330
C
102
}
330
C
100
AcDbDictionary
281
     1
  3
Standard
350
67
  0
DICTIONARY
  5
5F
102
{ACAD_REACTORS
330
C
102
}
330
C
100
AcDbDictionary
281
     1
  3
Standard
350
60
  0
DICTIONARY
  5
61
102
{ACAD_REACTORS
330
C
102
}
330
C
100
AcDbDictionary
281
     1
  0
ACDBDICTIONARYWDFLT
  5
E
102
{ACAD_REACTORS
330
C
102
}
330
C
100
AcDbDictionary
281
     1
  3
Normal
350
F
100
AcDbDictionaryWithDefault
340
F
  0
DICTIONARY
  5
42
102
{ACAD_REACTORS
330
C
102
}
330
C
100
AcDbDictionary
281
     1
  3
A0
350
43
  3
A1
350
44
  3
A2
350
45
  3
A3
350
46
  3
A4
350
47
  3
A5
350
48
  3
A6
350
49
  3
A7
350
4A
  3
A8
350
4B
  3
A9
350
4C
  3
B0
350
4D
  3
B1
350
4E
  3
B2
350
4F
  3
B3
350
50
  3
B4
350
51
  3
B5
350
52
  3
B6
350
53
  0
DICTIONARY
  5
68
102
{ACAD_REACTORS
330
C
102
}
330
C
100
AcDbDictionary
281
     1
  3
Imperial24
350
69
  0
DICTIONARY
  5
64
102
{ACAD_REACTORS
330
C
102
}
330
C
100
AcDbDictionary
281
     1
  3
Standard
350
65
  0
DICTIONARY
  5
29
102
{ACAD_REACTORS
330
C
102
}
330
C
100
AcDbDictionary
281
     1
  3
2dWireframe
350
2F
  3
Basic
350
2E
  3
Brighten
350
35
  3
ColorChange
350
39
  3
Conceptual
350
32
  3
Dim
350
34
  3
EdgeColorOff
350
41
  3
Facepattern
350
38
  3
Flat
350
2A
  3
FlatWithEdges
350
2B
  3
Gouraud
350
2C
  3
GouraudWithEdges
350
2D
  3
Hidden
350
31
  3
JitterOff
350
3F
  3
Linepattern
350
37
  3
OverhangOff
350
40
  3
Realistic
350
33
  3
Shaded
350
3E
  3
Shaded with edges
350
3D
  3
Shades of Gray
350
3A
  3
Sketchy
350
3B
  3
Thicken
350
36
  3
Wireframe
350
30
  3
X-Ray
350
3C
  0
XRECORD
  5
114
102
{ACAD_REACTORS
330
C
102
}
330
C
100
AcDbXrecord
280
     1
 90
        1
330
65
  0
DICTIONARY
  5
10C
102
{ACAD_REACTORS
330
C
102
}
330
C
100
AcDbDictionary
281
     1
  3
CANNOSCALE
350
111
  3
CMLEADERSTYLE
350
10E
  3
CTABLESTYLE
350
10D
  3
CVIEWDETAILSTYLE
350
10F
  3
CVIEWSECTIONSTYLE
350
110
  0
ACDBDETAILVIEWSTYLE
  5
6B
102
{ACAD_REACTORS
330
6A
102
}
330
6A
100
AcDbModelDocViewStyle
 70
     0
  3
Imperial24
290
     1
300
Imperial24
 90
        0
100
AcDbDetailViewStyle
 70
     0
 71
     0
 90
        3
 71
     1
340
55
 62
   256
 40
0.24
340
0
 62
   256
 40
0.24
300

 40
0.36
280
     3
 71
     2
340
5D
 90
       25
 62
   256
 71
     3
340
55
 62
   256
 40
0.24
 90
        1
 40
0.75
 90
        1
300
%<\AcVar ViewType \f "%tc1">% %<\AcVar ViewDetailId>%\PSCALE %<\AcVar ViewScale \f "%sn">%
 71
     4
340
5D
 90
       25
 62
   256
340
5D
 90
       25
 62
   256
280
     0
  0
LAYOUT
  5
6F
102
{ACAD_REACTORS
330
62
102
}
330
62
100
AcDbPlotSettings
  1

  2

  4

  6

 40
0.0
 41
0.0
 42
0.0
 43
0.0
 44
0.0
 45
0.0
 46
0.0
 47
0.0
 48
0.0
 49
0.0
140
0.0
141
0.0
142
1.0
143
1.0
 70
   688
 72
     0
 73
     0
 74
     5
  7

 75
    16
147
1.0
 76
     0
 77
     2
 78
   300
148
0.0
149
0.0
100
AcDbLayout
  1
Layout1
 70
     1
 71
     1
 10
0.0
 20
0.0
 11
12.0
 21
9.0
 12
0.0
 22
0.0
 32
0.0
 14
0.0
 24
0.0
 34
0.0
 15
0.0
 25
0.0
 35
0.0
146
0.0
 13
0.0
 23
0.0
 33
0.0
 16
1.0
 26
0.0
 36
0.0
 17
0.0
 27
1.0
 37
0.0
 76
     0
330
6C
  0
LAYOUT
  5
77
102
{ACAD_REACTORS
330
62
102
}
330
62
100
AcDbPlotSettings
  1

  2

  4

  6

 40
0.0
 41
0.0
 42
0.0
 43
0.0
 44
0.0
 45
0.0
 46
0.0
 47
0.0
 48
0.0
 49
0.0
140
0.0
141
0.0
142
1.0
143
1.0
 70
   688
 72
     0
 73
     0
 74
     5
  7

 75
    16
147
1.0
 76
     0
 77
     2
 78
   300
148
0.0
149
0.0
100
AcDbLayout
  1
Layout2
 70
     1
 71
     2
 10
0.0
 20
0.0
 11
12.0
 21
9.0
 12
0.0
 22
0.0
 32
0.0
 14
0.0
 24
0.0
 34
0.0
 15
0.0
 25
0.0
 35
0.0
146
0.0
 13
0.0
 23
0.0
 33
0.0
 16
1.0
 26
0.0
 36
0.0
 17
0.0
 27
1.0
 37
0.0
 76
     0
330
74
  0
LAYOUT
  5
73
102
{ACAD_REACTORS
330
62
102
}
330
62
100
AcDbPlotSettings
  1

  2

  4

  6

 40
0.0
 41
0.0
 42
0.0
 43
0.0
 44
0.0
 45
0.0
 46
0.0
 47
0.0
 48
0.0
 49
0.0
140
0.0
141
0.0
142
1.0
143
1.0
 70
  1712
 72
     0
 73
     0
 74
     0
  7

 75
     0
147
1.0
 76
     0
 77
     2
 78
   300
148
0.0
149
0.0
100
AcDbLayout
  1
Model
 70
     1
 71
     0
 10
0.0
 20
0.0
 11
12.0
 21
9.0
 12
0.0
 22
0.0
 32
0.0
 14
0.0
 24
0.0
 34
0.0
 15
0.0
 25
0.0
 35
0.0
146
0.0
 13
0.0
 23
0.0
 33
0.0
 16
1.0
 26
0.0
 36
0.0
 17
0.0
 27
1.0
 37
0.0
 76
     0
330
70
  0
MATERIAL
  5
19
102
{ACAD_XDICTIONARY
360
1A
102
}
102
{ACAD_REACTORS
330
10
102
}
330
10
100
AcDbMaterial
  1
ByBlock
 72
     0
 43
0.0208333333333333
 43
0.0
 43
0.0
 43
0.0
 43
0.0
 43
0.0208333333333333
 43
0.0
 43
0.0
 43
0.0
 43
0.0
 43
1.0
 43
0.0
 43
0.0
 43
0.0
 43
0.0
 43
1.0
 77
     0
 47
0.0208333333333333
 47
0.0
 47
0.0
 47
0.0
 47
0.0
 47
0.0208333333333333
 47
0.0
 47
0.0
 47
0.0
 47
0.0
 47
1.0
 47
0.0
 47
0.0
 47
0.0
 47
0.0
 47
1.0
171
     0
 49
0.0208333333333333
 49
0.0
 49
0.0
 49
0.0
 49
0.0
 49
0.0208333333333333
 49
0.0
 49
0.0
 49
0.0
 49
0.0
 49
1.0
 49
0.0
 49
0.0
 49
0.0
 49
0.0
 49
1.0
175
     0
142
0.0208333333333333
142
0.0
142
0.0
142
0.0
142
0.0
142
0.0208333333333333
142
0.0
142
0.0
142
0.0
142
0.0
142
1.0
142
0.0
142
0.0
142
0.0
142
0.0
142
1.0
179
     0
144
0.0208333333333333
144
0.0
144
0.0
144
0.0
144
0.0
144
0.0208333333333333
144
0.0
144
0.0
144
0.0
144
0.0
144
1.0
144
0.0
144
0.0
144
0.0
144
0.0
144
1.0
147
0.0208333333333333
147
0.0
147
0.0
147
0.0
147
0.0
147
0.0208333333333333
147
0.0
147
0.0
147
0.0
147
0.0
147
1.0
147
0.0
147
0.0
147
0.0
147
0.0
147
1.0
  0
MATERIAL
  5
11
102
{ACAD_XDICTIONARY
360
12
102
}
102
{ACAD_REACTORS
330
10
102
}
330
10
100
AcDbMaterial
  1
ByLayer
 72
     0
 43
0.0208333333333333
 43
0.0
 43
0.0
 43
0.0
 43
0.0
 43
0.0208333333333333
 43
0.0
 43
0.0
 43
0.0
 43
0.0
 43
1.0
 43
0.0
 43
0.0
 43
0.0
 43
0.0
 43
1.0
 77
     0
 47
0.0208333333333333
 47
0.0
 47
0.0
 47
0.0
 47
0.0
 47
0.0208333333333333
 47
0.0
 47
0.0
 47
0.0
 47
0.0
 47
1.0
 47
0.0
 47
0.0
 47
0.0
 47
0.0
 47
1.0
171
     0
 49
0.0208333333333333
 49
0.0
 49
0.0
 49
0.0
 49
0.0
 49
0.0208333333333333
 49
0.0
 49
0.0
 49
0.0
 49
0.0
 49
1.0
 49
0.0
 49
0.0
 49
0.0
 49
0.0
 49
1.0
175
     0
142
0.0208333333333333
142
0.0
142
0.0
142
0.0
142
0.0
142
0.0208333333333333
142
0.0
142
0.0
142
0.0
142
0.0
142
1.0
142
0.0
142
0.0
142
0.0
142
0.0
142
1.0
179
     0
144
0.0208333333333333
144
0.0
144
0.0
144
0.0
144
0.0
144
0.0208333333333333
144
0.0
144
0.0
144
0.0
144
0.0
144
1.0
144
0.0
144
0.0
144
0.0
144
0.0
144
1.0
147
0.0208333333333333
147
0.0
147
0.0
147
0.0
147
0.0
147
0.0208333333333333
147
0.0
147
0.0
147
0.0
147
0.0
147
1.0
147
0.0
147
0.0
147
0.0
147
0.0
147
1.0
  0
MATERIAL
  5
21
102
{ACAD_XDICTIONARY
360
22
102
}
102
{ACAD_REACTORS
330
10
102
}
330
10
100
AcDbMaterial
  1
Global
 72
     0
 43
0.0208333333333333
 43
0.0
 43
0.0
 43
0.0
 43
0.0
 43
0.0208333333333333
 43
0.0
 43
0.0
 43
0.0
 43
0.0
 43
1.0
 43
0.0
 43
0.0
 43
0.0
 43
0.0
 43
1.0
 77
     0
 47
0.0208333333333333
 47
0.0
 47
0.0
 47
0.0
 47
0.0
 47
0.0208333333333333
 47
0.0
 47
0.0
 47
0.0
 47
0.0
 47
1.0
 47
0.0
 47
0.0
 47
0.0
 47
0.0
 47
1.0
171
     0
 49
0.0208333333333333
 49
0.0
 49
0.0
 49
0.0
 49
0.0
 49
0.0208333333333333
 49
0.0
 49
0.0
 49
0.0
 49
0.0
 49
1.0
 49
0.0
 49
0.0
 49
0.0
 49
0.0
 49
1.0
175
     0
142
0.0208333333333333
142
0.0
142
0.0
142
0.0
142
0.0
142
0.0208333333333333
142
0.0
142
0.0
142
0.0
142
0.0
142
1.0
142
0.0
142
0.0
142
0.0
142
0.0
142
1.0
179
     0
144
0.0208333333333333
144
0.0
144
0.0
144
0.0
144
0.0
144
0.0208333333333333
144
0.0
144
0.0
144
0.0
144
0.0
144
1.0
144
0.0
144
0.0
144
0.0
144
0.0
144
1.0
147
0.0208333333333333
147
0.0
147
0.0
147
0.0
147
0.0
147
0.0208333333333333
147
0.0
147
0.0
147
0.0
147
0.0
147
1.0
147
0.0
147
0.0
147
0.0
147
0.0
147
1.0
  0
MLEADERSTYLE
  5
67
102
{ACAD_REACTORS
330
66
102
}
330
66
100
AcDbMLeaderStyle
179
     2
170
     2
171
     1
172
     0
 90
        2
 40
0.0
 41
0.0
173
     1
 91
-1056964608
340
5B
 92
       -2
290
     1
 42
0.09
291
     1
 43
0.36
  3
Standard
 44
0.18
300

342
55
174
     1
178
     6
175
     1
176
     0
 93
-1056964608
 45
0.18
292
     0
297
     0
 46
0.18
 94
-1056964608
 47
1.0
 49
1.0
140
1.0
293
     1
141
0.0
294
     1
177
     0
142
1.0
295
     1
296
     0
143
0.125
271
     0
272
     9
273
     9
298
     1
  0
MLINESTYLE
  5
60
102
{ACAD_REACTORS
330
5F
102
}
330
5F
100
AcDbMlineStyle
  2
STANDARD
 70
     0
  3

 62
   256
 51
90.0
 52
90.0
 71
     2
 49
0.5
 62
   256
  6
BYLAYER
 49
-0.5
 62
   256
  6
BYLAYER
  0
ACDBPLACEHOLDER
  5
F
102
{ACAD_REACTORS
330
E
102
}
330
E
  0
SCALE
  5
43
102
{ACAD_REACTORS
330
42
102
}
330
42
100
AcDbScale
 70
     0
300
1:1
140
1.0
141
1.0
290
     1
  0
SCALE
  5
44
102
{ACAD_REACTORS
330
42
102
}
330
42
100
AcDbScale
 70
     0
300
1/128" = 1'-0"
140
0.0078125
141
12.0
290
     0
  0
SCALE
  5
45
102
{ACAD_REACTORS
330
42
102
}
330
42
100
AcDbScale
 70
     0
300
1/64" = 1'-0"
140
0.015625
141
12.0
290
     0
  0
SCALE
  5
46
102
{ACAD_REACTORS
330
42
102
}
330
42
100
AcDbScale
 70
     0
300
1/32" = 1'-0"
140
0.03125
141
12.0
290
     0
  0
SCALE
  5
47
102
{ACAD_REACTORS
330
42
102
}
330
42
100
AcDbScale
 70
     0
300
1/16" = 1'-0"
140
0.0625
141
12.0
290
     0
  0
SCALE
  5
48
102
{ACAD_REACTORS
330
42
102
}
330
42
100
AcDbScale
 70
     0
300
3/32" = 1'-0"
140
0.09375
141
12.0
290
     0
  0
SCALE
  5
49
102
{ACAD_REACTORS
330
42
102
}
330
42
100
AcDbScale
 70
     0
300
1/8" = 1'-0"
140
0.125
141
12.0
290
     0
  0
SCALE
  5
4A
102
{ACAD_REACTORS
330
42
102
}
330
42
100
AcDbScale
 70
     0
300
3/16" = 1'-0"
140
0.1875
141
12.0
290
     0
  0
SCALE
  5
4B
102
{ACAD_REACTORS
330
42
102
}
330
42
100
AcDbScale
 70
     0
300
1/4" = 1'-0"
140
0.25
141
12.0
290
     0
  0
SCALE
  5
4C
102
{ACAD_REACTORS
330
42
102
}
330
42
100
AcDbScale
 70
     0
300
3/8" = 1'-0"
140
0.375
141
12.0
290
     0
  0
SCALE
  5
4D
102
{ACAD_REACTORS
330
42
102
}
330
42
100
AcDbScale
 70
     0
300
1/2" = 1'-0"
140
0.5
141
12.0
290
     0
  0
SCALE
  5
4E
102
{ACAD_REACTORS
330
42
102
}
330
42
100
AcDbScale
 70
     0
300
3/4" = 1'-0"
140
0.75
141
12.0
290
     0
  0
SCALE
  5
4F
102
{ACAD_REACTORS
330
42
102
}
330
42
100
AcDbScale
 70
     0
300
1" = 1'-0"
140
1.0
141
12.0
290
     0
  0
SCALE
  5
50
102
{ACAD_REACTORS
330
42
102
}
330
42
100
AcDbScale
 70
     0
300
1-1/2" = 1'-0"
140
1.5
141
12.0
290
     0
  0
SCALE
  5
51
102
{ACAD_REACTORS
330
42
102
}
330
42
100
AcDbScale
 70
     0
300
3" = 1'-0"
140
3.0
141
12.0
290
     0
  0
SCALE
  5
52
102
{ACAD_REACTORS
330
42
102
}
330
42
100
AcDbScale
 70
     0
300
6" = 1'-0"
140
6.0
141
12.0
290
     0
  0
SCALE
  5
53
102
{ACAD_REACTORS
330
42
102
}
330
42
100
AcDbScale
 70
     0
300
1'-0" = 1'-0"
140
12.0
141
12.0
290
     0
  0
ACDBSECTIONVIEWSTYLE
  5
69
102
{ACAD_REACTORS
330
68
102
}
330
68
100
AcDbModelDocViewStyle
 70
     0
  3
Imperial24
290
     1
300
Imperial24
 90
        0
100
AcDbSectionViewStyle
 70
     0
 71
     0
 90
       78
 71
     1
340
55
 62
   256
 40
0.24
340
0
340
0
 62
   256
 40
0.24
300
I, O, Q, S, X, Z
 40
0.48
 90
        3
 40
0.18
 90
        1
 71
     2
340
5D
 90
       25
 62
   256
340
5D
 90
       50
 62
   256
 40
0.24
 40
0.0
 40
0.24
 71
     3
340
55
 62
   256
 40
0.24
 90
        1
 40
0.75
 90
        1
300
%<\AcVar ViewType \f "%tc1">% %<\AcVar ViewSectionStartId>%-%<\AcVar ViewSectionEndId>%\PSCALE %<\AcVar ViewScale \f "%sn">%
 71
     4
 62
   256
 62
   257
300
ANSI31
 40
1.0
 90
        0
290
     0
290
     0
 90
        6
 40
0.0
 40
1.570796326794896
 40
0.2617993877991494
 40
1.308996938995747
 40
-0.2617993877991494
 40
1.832595714594046
  0
TABLESTYLE
  5
65
102
{ACAD_XDICTIONARY
360
112
102
}
102
{ACAD_REACTORS
330
64
102
}
330
64
100
AcDbTableStyle
280
     0
  3
Standard
 70
     0
 71
     0
 40
0.06
 41
0.06
280
     0
281
     0
  7
Standard
140
0.18
170
     2
 62
     0
 63
     7
283
     0
 90
      512
 91
        0
  1

274
    -2
284
     1
 64
     0
275
    -2
285
     1
 65
     0
276
    -2
286
     1
 66
     0
277
    -2
287
     1
 67
     0
278
    -2
288
     1
 68
     0
279
    -2
289
     1
 69
     0
  7
Standard
140
0.25
170
     5
 62
     0
 63
     7
283
     0
 90
      512
 91
        0
  1

274
    -2
284
     1
 64
     0
275
    -2
285
     1
 65
     0
276
    -2
286
     1
 66
     0
277
    -2
287
     1
 67
     0
278
    -2
288
     1
 68
     0
279
    -2
289
     1
 69
     0
  7
Standard
140
0.18
170
     5
 62
     0
 63
     7
283
     0
 90
      512
 91
        0
  1

274
    -2
284
     1
 64
     0
275
    -2
285
     1
 65
     0
276
    -2
286
     1
 66
     0
277
    -2
287
     1
 67
     0
278
    -2
288
     1
 68
     0
279
    -2
289
     1
 69
     0
  0
VISUALSTYLE
  5
2F
102
{ACAD_REACTORS
330
29
102
}
330
29
100
AcDbVisualStyle
  2
2dWireframe
 70
     4
177
     3
291
     0
 70
    58
 90
        0
176
     1
 90
        2
176
     1
 90
        0
176
     1
 90
        0
176
     1
 40
0.6
176
     1
 40
30.0
176
     1
 62
     7
420
 16777215
176
     1
 90
        1
176
     1
 90
        4
176
     1
 62
     7
176
     1
 62
   257
176
     1
 90
        1
176
     1
 90
        1
176
     1
 40
1.0
176
     1
 90
        0
176
     1
 62
   257
176
     1
 40
1.0
176
     1
 90
        1
176
     1
 90
        6
176
     1
 90
        2
176
     1
 62
     7
176
     1
 90
        5
176
     1
 90
        0
176
     1
 90
        0
176
     1
290
     0
176
     1
 90
        1
176
     1
 40
0.0
176
     1
 90
        0
176
     1
290
     1
176
     1
290
     1
176
     1
290
     0
176
     1
290
     0
176
     1
290
     0
176
     1
290
     0
176
     1
290
     0
176
     1
290
     0
176
     1
290
     0
176
     1
 90
       50
176
     1
 40
0.0
176
     1
 40
1.0
176
     1
 90
        0
176
     1
 62
    18
420
        0
176
     1
 90
       50
176
     1
 90
        3
176
     1
 62
     5
420
      255
176
     1
290
     0
176
     1
 90
       50
176
     1
 90
       50
176
     1
 90
       50
176
     1
290
     0
176
     1
 90
       50
176
     1
 62
   256
176
     0
 40
1.0
176
     0
 90
        2
176
     1
  1
strokes_ogs.tif
176
     1
290
     0
176
     1
 40
1.0
176
     1
 40
1.0
176
     1
  0
VISUALSTYLE
  5
2E
102
{ACAD_REACTORS
330
29
102
}
330
29
100
AcDbVisualStyle
  2
Basic
 70
     7
177
     3
291
     1
 70
    58
 90
        1
176
     1
 90
        0
176
     1
 90
        1
176
     1
 90
        0
176
     1
 40
0.6
176
     1
 40
30.0
176
     1
 62
     7
420
 16777215
176
     1
 90
        0
176
     1
 90
        4
176
     1
 62
     7
176
     1
 62
   257
176
     1
 90
        1
176
     1
 90
        1
176
     1
 40
1.0
176
     1
 90
        8
176
     1
 62
     7
176
     1
 40
1.0
176
     1
 90
        1
176
     1
 90
        6
176
     1
 90
        2
176
     1
 62
     7
176
     1
 90
        5
176
     1
 90
        0
176
     1
 90
        0
176
     1
290
     0
176
     1
 90
        1
176
     1
 40
0.0
176
     1
 90
        0
176
     1
290
     0
176
     1
290
     1
176
     1
290
     1
176
     1
290
     0
176
     1
290
     0
176
     1
290
     0
176
     1
290
     0
176
     1
290
     0
176
     1
290
     0
176
     1
 90
       50
176
     1
 40
0.0
176
     1
 40
1.0
176
     1
 90
        0
176
     1
 62
    18
420
        0
176
     1
 90
       50
176
     1
 90
        3
176
     1
 62
     5
420
      255
176
     1
290
     0
176
     1
 90
       50
176
     1
 90
       50
176
     1
 90
       50
176
     1
290
     0
176
     1
 90
       50
176
     1
 62
   256
176
     0
 40
1.0
176
     0
 90
        2
176
     1
  1
strokes_ogs.tif
176
     1
290
     0
176
     1
 40
1.0
176
     1
 40
1.0
176
     1
  0
VISUALSTYLE
  5
35
102
{ACAD_REACTORS
330
29
102
}
330
29
100
AcDbVisualStyle
  2
Brighten
 70
    12
177
     3
291
     1
 70
    58
 90
        2
176
     1
 90
        2
176
     1
 90
        0
176
     1
 90
        0
176
     1
 40
0.6
176
     1
 40
30.0
176
     1
 62
     7
420
 16777215
176
     1
 90
        1
176
     1
 90
        4
176
     1
 62
     7
176
     1
 62
   257
176
     1
 90
        1
176
     1
 90
        1
176
     1
 40
1.0
176
     1
 90
        8
176
     1
 62
     7
176
     1
 40
1.0
176
     1
 90
        1
176
     1
 90
        6
176
     1
 90
        2
176
     1
 62
     7
176
     1
 90
        5
176
     1
 90
        0
176
     1
 90
        0
176
     1
290
     0
176
     1
 90
        1
176
     1
 40
50.0
176
     1
 90
        0
176
     1
290
     0
176
     1
290
     1
176
     1
290
     1
176
     1
290
     0
176
     1
290
     0
176
     1
290
     0
176
     1
290
     0
176
     1
290
     0
176
     1
290
     0
176
     1
 90
       50
176
     1
 40
0.0
176
     1
 40
1.0
176
     1
 90
        0
176
     1
 62
    18
420
        0
176
     1
 90
       50
176
     1
 90
        3
176
     1
 62
     5
420
      255
176
     1
290
     0
176
     1
 90
       50
176
     1
 90
       50
176
     1
 90
       50
176
     1
290
     0
176
     1
 90
       50
176
     1
 62
   256
176
     0
 40
1.0
176
     0
 90
        2
176
     1
  1
strokes_ogs.tif
176
     1
290
     0
176
     1
 40
1.0
176
     1
 40
1.0
176
     1
  0
VISUALSTYLE
  5
39
102
{ACAD_REACTORS
330
29
102
}
330
29
100
AcDbVisualStyle
  2
ColorChange
 70
    16
177
     3
291
     1
 70
    58
 90
        2
176
     1
 90
        2
176
     1
 90
        3
176
     1
 90
        0
176
     1
 40
0.6
176
     1
 40
30.0
176
     1
 62
     8
420
  8421504
176
     1
 90
        1
176
     1
 90
        4
176
     1
 62
     7
176
     1
 62
   257
176
     1
 90
        1
176
     1
 90
        1
176
     1
 40
1.0
176
     1
 90
        8
176
     1
 62
     8
420
  8421504
176
     1
 40
1.0
176
     1
 90
        1
176
     1
 90
        6
176
     1
 90
        2
176
     1
 62
     7
176
     1
 90
        5
176
     1
 90
        0
176
     1
 90
        0
176
     1
290
     0
176
     1
 90
        1
176
     1
 40
0.0
176
     1
 90
        0
176
     1
290
     0
176
     1
290
     1
176
     1
290
     1
176
     1
290
     0
176
     1
290
     0
176
     1
290
     0
176
     1
290
     0
176
     1
290
     0
176
     1
290
     0
176
     1
 90
       50
176
     1
 40
0.0
176
     1
 40
1.0
176
     1
 90
        0
176
     1
 62
    18
420
        0
176
     1
 90
       50
176
     1
 90
        3
176
     1
 62
     5
420
      255
176
     1
290
     0
176
     1
 90
       50
176
     1
 90
       50
176
     1
 90
       50
176
     1
290
     0
176
     1
 90
       50
176
     1
 62
   256
176
     0
 40
1.0
176
     0
 90
        2
176
     1
  1
strokes_ogs.tif
176
     1
290
     0
176
     1
 40
1.0
176
     1
 40
1.0
176
     1
  0
VISUALSTYLE
  5
32
102
{ACAD_REACTORS
330
29
102
}
330
29
100
AcDbVisualStyle
  2
Conceptual
 70
     9
177
     3
291
     0
 70
    58
 90
        3
176
     1
 90
        2
176
     1
 90
        0
176
     1
 90
        0
176
     1
 40
0.6
176
     1
 40
30.0
176
     1
 62
     7
420
 16777215
176
     1
 90
        2
176
     1
 90
        2
176
     1
 62
     7
176
     1
 62
   257
176
     1
 90
        1
176
     1
 90
        1
176
     1
 40
179.0
176
     1
 90
        8
176
     1
 62
     7
176
     1
 40
1.0
176
     1
 90
        1
176
     1
 90
        6
176
     1
 90
        2
176
     1
 62
     7
176
     1
 90
        3
176
     1
 90
        0
176
     1
 90
        0
176
     1
290
     0
176
     1
 90
        1
176
     1
 40
0.0
176
     1
 90
        0
176
     1
290
     0
176
     1
290
     1
176
     1
290
     1
176
     1
290
     0
176
     1
290
     0
176
     1
290
     0
176
     1
290
     0
176
     1
290
     0
176
     1
290
     0
176
     1
 90
       50
176
     1
 40
0.0
176
     1
 40
1.0
176
     1
 90
        0
176
     1
 62
    18
420
        0
176
     1
 90
       50
176
     1
 90
        3
176
     1
 62
     5
420
      255
176
     1
290
     0
176
     1
 90
       50
176
     1
 90
       50
176
     1
 90
       50
176
     1
290
     0
176
     1
 90
       50
176
     1
 62
   256
176
     0
 40
1.0
176
     0
 90
        2
176
     1
  1
strokes_ogs.tif
176
     1
290
     0
176
     1
 40
1.0
176
     1
 40
1.0
176
     1
  0
VISUALSTYLE
  5
34
102
{ACAD_REACTORS
330
29
102
}
330
29
100
AcDbVisualStyle
  2
Dim
 70
    11
177
     3
291
     1
 70
    58
 90
        2
176
     1
 90
        2
176
     1
 90
        0
176
     1
 90
        0
176
     1
 40
0.6
176
     1
 40
30.0
176
     1
 62
     7
420
 16777215
176
     1
 90
        1
176
     1
 90
        4
176
     1
 62
     7
176
     1
 62
   257
176
     1
 90
        1
176
     1
 90
        1
176
     1
 40
1.0
176
     1
 90
        8
176
     1
 62
     7
176
     1
 40
1.0
176
     1
 90
        1
176
     1
 90
        6
176
     1
 90
        2
176
     1
 62
     7
176
     1
 90
        5
176
     1
 90
        0
176
     1
 90
        0
176
     1
290
     0
176
     1
 90
        1
176
     1
 40
-50.0
176
     1
 90
        0
176
     1
290
     0
176
     1
290
     1
176
     1
290
     1
176
     1
290
     0
176
     1
290
     0
176
     1
290
     0
176
     1
290
     0
176
     1
290
     0
176
     1
290
     0
176
     1
 90
       50
176
     1
 40
0.0
176
     1
 40
1.0
176
     1
 90
        0
176
     1
 62
    18
420
        0
176
     1
 90
       50
176
     1
 90
        3
176
     1
 62
     5
420
      255
176
     1
290
     0
176
     1
 90
       50
176
     1
 90
       50
176
     1
 90
       50
176
     1
290
     0
176
     1
 90
       50
176
     1
 62
   256
176
     0
 40
1.0
176
     0
 90
        2
176
     1
  1
strokes_ogs.tif
176
     1
290
     0
176
     1
 40
1.0
176
     1
 40
1.0
176
     1
  0
VISUALSTYLE
  5
41
102
{ACAD_REACTORS
330
29
102
}
330
29
100
AcDbVisualStyle
  2
EdgeColorOff
 70
    22
177
     3
291
     1
 70
    58
 90
        2
176
     0
 90
        2
176
     0
 90
        0
176
     0
 90
        0
176
     0
 40
0.6
176
     0
 40
30.0
176
     0
 62
     7
420
 16777215
176
     0
 90
        1
176
     0
 90
        4
176
     0
 62
     7
176
     0
 62
   257
176
     0
 90
        1
176
     0
 90
        1
176
     0
 40
1.0
176
     0
 90
        8
176
     2
 62
     7
176
     0
 40
1.0
176
     0
 90
        1
176
     0
 90
        6
176
     0
 90
        2
176
     0
 62
     7
176
     0
 90
        5
176
     0
 90
        0
176
     0
 90
        0
176
     0
290
     0
176
     0
 90
        1
176
     0
 40
0.0
176
     0
 90
        0
176
     0
290
     0
176
     0
290
     1
176
     0
290
     1
176
     0
290
     0
176
     0
290
     0
176
     0
290
     0
176
     0
290
     0
176
     0
290
     0
176
     0
290
     0
176
     0
 90
       50
176
     0
 40
0.0
176
     0
 40
1.0
176
     0
 90
        0
176
     0
 62
    18
420
        0
176
     0
 90
       50
176
     0
 90
        3
176
     0
 62
     5
420
      255
176
     0
290
     0
176
     0
 90
       50
176
     0
 90
       50
176
     0
 90
       50
176
     0
290
     0
176
     0
 90
       50
176
     0
 62
   256
176
     0
 40
1.0
176
     0
 90
        2
176
     0
  1
strokes_ogs.tif
176
     0
290
     0
176
     0
 40
1.0
176
     0
 40
1.0
176
     0
  0
VISUALSTYLE
  5
38
102
{ACAD_REACTORS
330
29
102
}
330
29
100
AcDbVisualStyle
  2
Facepattern
 70
    15
177
     3
291
     1
 70
    58
 90
        2
176
     1
 90
        2
176
     1
 90
        0
176
     1
 90
        0
176
     1
 40
0.6
176
     1
 40
30.0
176
     1
 62
     7
420
 16777215
176
     1
 90
        1
176
     1
 90
        4
176
     1
 62
     7
176
     1
 62
   257
176
     1
 90
        1
176
     1
 90
        1
176
     1
 40
1.0
176
     1
 90
        8
176
     1
 62
     7
176
     1
 40
1.0
176
     1
 90
        1
176
     1
 90
        6
176
     1
 90
        2
176
     1
 62
     7
176
     1
 90
        5
176
     1
 90
        0
176
     1
 90
        0
176
     1
290
     0
176
     1
 90
        1
176
     1
 40
0.0
176
     1
 90
        0
176
     1
290
     0
176
     1
290
     1
176
     1
290
     1
176
     1
290
     0
176
     1
290
     0
176
     1
290
     0
176
     1
290
     0
176
     1
290
     0
176
     1
290
     0
176
     1
 90
       50
176
     1
 40
0.0
176
     1
 40
1.0
176
     1
 90
        0
176
     1
 62
    18
420
        0
176
     1
 90
       50
176
     1
 90
        3
176
     1
 62
     5
420
      255
176
     1
290
     0
176
     1
 90
       50
176
     1
 90
       50
176
     1
 90
       50
176
     1
290
     0
176
     1
 90
       50
176
     1
 62
   256
176
     0
 40
1.0
176
     0
 90
        2
176
     1
  1
strokes_ogs.tif
176
     1
290
     0
176
     1
 40
1.0
176
     1
 40
1.0
176
     1
  0
VISUALSTYLE
  5
2A
102
{ACAD_REACTORS
330
29
102
}
330
29
100
AcDbVisualStyle
  2
Flat
 70
     0
177
     3
291
     1
 70
    58
 90
        2
176
     1
 90
        1
176
     1
 90
        1
176
     1
 90
        2
176
     1
 40
0.6
176
     1
 40
30.0
176
     1
 62
     7
420
 16777215
176
     1
 90
        0
176
     1
 90
        0
176
     1
 62
     7
176
     1
 62
   257
176
     1
 90
        1
176
     1
 90
        1
176
     1
 40
1.0
176
     1
 90
        8
176
     1
 62
     7
176
     1
 40
1.0
176
     1
 90
        1
176
     1
 90
        6
176
     1
 90
        2
176
     1
 62
     7
176
     1
 90
        5
176
     1
 90
        0
176
     1
 90
        0
176
     1
290
     0
176
     1
 90
       13
176
     1
 40
0.0
176
     1
 90
        0
176
     1
290
     0
176
     1
290
     1
176
     1
290
     1
176
     1
290
     0
176
     1
290
     0
176
     1
290
     0
176
     1
290
     0
176
     1
290
     0
176
     1
290
     0
176
     1
 90
       50
176
     1
 40
0.0
176
     1
 40
1.0
176
     1
 90
        0
176
     1
 62
    18
420
        0
176
     1
 90
       50
176
     1
 90
        3
176
     1
 62
     5
420
      255
176
     1
290
     0
176
     1
 90
       50
176
     1
 90
       50
176
     1
 90
       50
176
     1
290
     0
176
     1
 90
       50
176
     1
 62
   256
176
     0
 40
1.0
176
     0
 90
        2
176
     1
  1
strokes_ogs.tif
176
     1
290
     0
176
     1
 40
1.0
176
     1
 40
1.0
176
     1
  0
VISUALSTYLE
  5
2B
102
{ACAD_REACTORS
330
29
102
}
330
29
100
AcDbVisualStyle
  2
FlatWithEdges
 70
     1
177
     3
291
     1
 70
    58
 90
        2
176
     1
 90
        1
176
     1
 90
        1
176
     1
 90
        2
176
     1
 40
0.6
176
     1
 40
30.0
176
     1
 62
     7
420
 16777215
176
     1
 90
        1
176
     1
 90
        0
176
     1
 62
     7
176
     1
 62
   257
176
     1
 90
        1
176
     1
 90
        1
176
     1
 40
1.0
176
     1
 90
        0
176
     1
 62
   257
176
     1
 40
1.0
176
     1
 90
        1
176
     1
 90
        6
176
     1
 90
        2
176
     1
 62
     7
176
     1
 90
        5
176
     1
 90
        0
176
     1
 90
        0
176
     1
290
     0
176
     1
 90
       13
176
     1
 40
0.0
176
     1
 90
        0
176
     1
290
     0
176
     1
290
     1
176
     1
290
     1
176
     1
290
     0
176
     1
290
     0
176
     1
290
     0
176
     1
290
     0
176
     1
290
     0
176
     1
290
     0
176
     1
 90
       50
176
     1
 40
0.0
176
     1
 40
1.0
176
     1
 90
        0
176
     1
 62
    18
420
        0
176
     1
 90
       50
176
     1
 90
        3
176
     1
 62
     5
420
      255
176
     1
290
     0
176
     1
 90
       50
176
     1
 90
       50
176
     1
 90
       50
176
     1
290
     0
176
     1
 90
       50
176
     1
 62
   256
176
     0
 40
1.0
176
     0
 90
        2
176
     1
  1
strokes_ogs.tif
176
     1
290
     0
176
     1
 40
1.0
176
     1
 40
1.0
176
     1
  0
VISUALSTYLE
  5
2C
102
{ACAD_REACTORS
330
29
102
}
330
29
100
AcDbVisualStyle
  2
Gouraud
 70
     2
177
     3
291
     1
 70
    58
 90
        2
176
     1
 90
        2
176
     1
 90
        1
176
     1
 90
        2
176
     1
 40
0.6
176
     1
 40
30.0
176
     1
 62
     7
420
 16777215
176
     1
 90
        0
176
     1
 90
        0
176
     1
 62
     7
176
     1
 62
   257
176
     1
 90
        1
176
     1
 90
        1
176
     1
 40
1.0
176
     1
 90
        0
176
     1
 62
     7
176
     1
 40
1.0
176
     1
 90
        1
176
     1
 90
        6
176
     1
 90
        2
176
     1
 62
     7
176
     1
 90
        5
176
     1
 90
        0
176
     1
 90
        0
176
     1
290
     0
176
     1
 90
       13
176
     1
 40
0.0
176
     1
 90
        0
176
     1
290
     0
176
     1
290
     1
176
     1
290
     1
176
     1
290
     0
176
     1
290
     0
176
     1
290
     0
176
     1
290
     0
176
     1
290
     0
176
     1
290
     0
176
     1
 90
       50
176
     1
 40
0.0
176
     1
 40
1.0
176
     1
 90
        0
176
     1
 62
    18
420
        0
176
     1
 90
       50
176
     1
 90
        3
176
     1
 62
     5
420
      255
176
     1
290
     0
176
     1
 90
       50
176
     1
 90
       50
176
     1
 90
       50
176
     1
290
     0
176
     1
 90
       50
176
     1
 62
   256
176
     0
 40
1.0
176
     0
 90
        2
176
     1
  1
strokes_ogs.tif
176
     1
290
     0
176
     1
 40
1.0
176
     1
 40
1.0
176
     1
  0
VISUALSTYLE
  5
2D
102
{ACAD_REACTORS
330
29
102
}
330
29
100
AcDbVisualStyle
  2
GouraudWithEdges
 70
     3
177
     3
291
     1
 70
    58
 90
        2
176
     1
 90
        2
176
     1
 90
        1
176
     1
 90
        2
176
     1
 40
0.6
176
     1
 40
30.0
176
     1
 62
     7
420
 16777215
176
     1
 90
        1
176
     1
 90
        0
176
     1
 62
     7
176
     1
 62
   257
176
     1
 90
        1
176
     1
 90
        1
176
     1
 40
1.0
176
     1
 90
        0
176
     1
 62
   257
176
     1
 40
1.0
176
     1
 90
        1
176
     1
 90
        6
176
     1
 90
        2
176
     1
 62
     7
176
     1
 90
        5
176
     1
 90
        0
176
     1
 90
        0
176
     1
290
     0
176
     1
 90
       13
176
     1
 40
0.0
176
     1
 90
        0
176
     1
290
     0
176
     1
290
     1
176
     1
290
     1
176
     1
290
     0
176
     1
290
     0
176
     1
290
     0
176
     1
290
     0
176
     1
290
     0
176
     1
290
     0
176
     1
 90
       50
176
     1
 40
0.0
176
     1
 40
1.0
176
     1
 90
        0
176
     1
 62
    18
420
        0
176
     1
 90
       50
176
     1
 90
        3
176
     1
 62
     5
420
      255
176
     1
290
     0
176
     1
 90
       50
176
     1
 90
       50
176
     1
 90
       50
176
     1
290
     0
176
     1
 90
       50
176
     1
 62
   256
176
     0
 40
1.0
176
     0
 90
        2
176
     1
  1
strokes_ogs.tif
176
     1
290
     0
176
     1
 40
1.0
176
     1
 40
1.0
176
     1
  0
VISUALSTYLE
  5
31
102
{ACAD_REACTORS
330
29
102
}
330
29
100
AcDbVisualStyle
  2
Hidden
 70
     6
177
     3
291
     0
 70
    58
 90
        1
176
     1
 90
        2
176
     1
 90
        2
176
     1
 90
        0
176
     1
 40
0.6
176
     1
 40
30.0
176
     1
 62
     7
420
 16777215
176
     1
 90
        2
176
     1
 90
        2
176
     1
 62
     7
176
     1
 62
   257
176
     1
 90
        2
176
     1
 90
        1
176
     1
 40
40.0
176
     1
 90
        0
176
     1
 62
   257
176
     1
 40
1.0
176
     1
 90
        1
176
     1
 90
        6
176
     1
 90
        2
176
     1
 62
     7
176
     1
 90
        3
176
     1
 90
        0
176
     1
 90
        0
176
     1
290
     0
176
     1
 90
        1
176
     1
 40
0.0
176
     1
 90
        0
176
     1
290
     0
176
     1
290
     1
176
     1
290
     1
176
     1
290
     0
176
     1
290
     0
176
     1
290
     0
176
     1
290
     0
176
     1
290
     0
176
     1
290
     0
176
     1
 90
       50
176
     1
 40
0.0
176
     1
 40
1.0
176
     1
 90
        0
176
     1
 62
    18
420
        0
176
     1
 90
       50
176
     1
 90
        3
176
     1
 62
     5
420
      255
176
     1
290
     0
176
     1
 90
       50
176
     1
 90
       50
176
     1
 90
       50
176
     1
290
     0
176
     1
 90
       50
176
     1
 62
   256
176
     0
 40
1.0
176
     0
 90
        2
176
     1
  1
strokes_ogs.tif
176
     1
290
     0
176
     1
 40
1.0
176
     1
 40
1.0
176
     1
  0
VISUALSTYLE
  5
3F
102
{ACAD_REACTORS
330
29
102
}
330
29
100
AcDbVisualStyle
  2
JitterOff
 70
    20
177
     3
291
     1
 70
    58
 90
        2
176
     0
 90
        2
176
     0
 90
        0
176
     0
 90
        0
176
     0
 40
0.6
176
     0
 40
30.0
176
     0
 62
     7
420
 16777215
176
     0
 90
        1
176
     0
 90
        4
176
     0
 62
     7
176
     0
 62
   257
176
     0
 90
        1
176
     0
 90
        1
176
     0
 40
1.0
176
     0
 90
       10
176
     2
 62
     7
176
     0
 40
1.0
176
     0
 90
        1
176
     0
 90
        6
176
     0
 90
        2
176
     0
 62
     7
176
     0
 90
        5
176
     0
 90
        0
176
     0
 90
        0
176
     0
290
     0
176
     0
 90
        1
176
     0
 40
0.0
176
     0
 90
        0
176
     0
290
     0
176
     0
290
     1
176
     0
290
     1
176
     0
290
     0
176
     0
290
     0
176
     0
290
     0
176
     0
290
     0
176
     0
290
     0
176
     0
290
     0
176
     0
 90
       50
176
     0
 40
0.0
176
     0
 40
1.0
176
     0
 90
        0
176
     0
 62
    18
420
        0
176
     0
 90
       50
176
     0
 90
        3
176
     0
 62
     5
420
      255
176
     0
290
     0
176
     0
 90
       50
176
     0
 90
       50
176
     0
 90
       50
176
     0
290
     0
176
     0
 90
       50
176
     0
 62
   256
176
     0
 40
1.0
176
     0
 90
        2
176
     0
  1
strokes_ogs.tif
176
     0
290
     0
176
     0
 40
1.0
176
     0
 40
1.0
176
     0
  0
VISUALSTYLE
  5
37
102
{ACAD_REACTORS
330
29
102
}
330
29
100
AcDbVisualStyle
  2
Linepattern
 70
    14
177
     3
291
     1
 70
    58
 90
        2
176
     1
 90
        2
176
     1
 90
        0
176
     1
 90
        0
176
     1
 40
0.6
176
     1
 40
30.0
176
     1
 62
     7
420
 16777215
176
     1
 90
        1
176
     1
 90
        4
176
     1
 62
     7
176
     1
 62
   257
176
     1
 90
        7
176
     1
 90
        7
176
     1
 40
1.0
176
     1
 90
        8
176
     1
 62
     7
176
     1
 40
1.0
176
     1
 90
        1
176
     1
 90
        6
176
     1
 90
        2
176
     1
 62
     7
176
     1
 90
        5
176
     1
 90
        0
176
     1
 90
        0
176
     1
290
     0
176
     1
 90
        1
176
     1
 40
0.0
176
     1
 90
        0
176
     1
290
     0
176
     1
290
     1
176
     1
290
     1
176
     1
290
     0
176
     1
290
     0
176
     1
290
     0
176
     1
290
     0
176
     1
290
     0
176
     1
290
     0
176
     1
 90
       50
176
     1
 40
0.0
176
     1
 40
1.0
176
     1
 90
        0
176
     1
 62
    18
420
        0
176
     1
 90
       50
176
     1
 90
        3
176
     1
 62
     5
420
      255
176
     1
290
     0
176
     1
 90
       50
176
     1
 90
       50
176
     1
 90
       50
176
     1
290
     0
176
     1
 90
       50
176
     1
 62
   256
176
     0
 40
1.0
176
     0
 90
        2
176
     1
  1
strokes_ogs.tif
176
     1
290
     0
176
     1
 40
1.0
176
     1
 40
1.0
176
     1
  0
VISUALSTYLE
  5
40
102
{ACAD_REACTORS
330
29
102
}
330
29
100
AcDbVisualStyle
  2
OverhangOff
 70
    21
177
     3
291
     1
 70
    58
 90
        2
176
     0
 90
        2
176
     0
 90
        0
176
     0
 90
        0
176
     0
 40
0.6
176
     0
 40
30.0
176
     0
 62
     7
420
 16777215
176
     0
 90
        1
176
     0
 90
        4
176
     0
 62
     7
176
     0
 62
   257
176
     0
 90
        1
176
     0
 90
        1
176
     0
 40
1.0
176
     0
 90
        9
176
     2
 62
     7
176
     0
 40
1.0
176
     0
 90
        1
176
     0
 90
        6
176
     0
 90
        2
176
     0
 62
     7
176
     0
 90
        5
176
     0
 90
        0
176
     0
 90
        0
176
     0
290
     0
176
     0
 90
        1
176
     0
 40
0.0
176
     0
 90
        0
176
     0
290
     0
176
     0
290
     1
176
     0
290
     1
176
     0
290
     0
176
     0
290
     0
176
     0
290
     0
176
     0
290
     0
176
     0
290
     0
176
     0
290
     0
176
     0
 90
       50
176
     0
 40
0.0
176
     0
 40
1.0
176
     0
 90
        0
176
     0
 62
    18
420
        0
176
     0
 90
       50
176
     0
 90
        3
176
     0
 62
     5
420
      255
176
     0
290
     0
176
     0
 90
       50
176
     0
 90
       50
176
     0
 90
       50
176
     0
290
     0
176
     0
 90
       50
176
     0
 62
   256
176
     0
 40
1.0
176
     0
 90
        2
176
     0
  1
strokes_ogs.tif
176
     0
290
     0
176
     0
 40
1.0
176
     0
 40
1.0
176
     0
  0
VISUALSTYLE
  5
33
102
{ACAD_REACTORS
330
29
102
}
330
29
100
AcDbVisualStyle
  2
Realistic
 70
     8
177
     3
291
     0
 70
    58
 90
        2
176
     1
 90
        3
176
     1
 90
        0
176
     1
 90
        2
176
     1
 40
0.6
176
     1
 40
30.0
176
     1
 62
     7
420
 16777215
176
     1
 90
        0
176
     1
 90
        0
176
     1
 62
     7
176
     1
 62
   257
176
     1
 90
        1
176
     1
 90
        1
176
     1
 40
1.0
176
     1
 90
        8
176
     1
 62
   257
176
     1
 40
1.0
176
     1
 90
        1
176
     1
 90
        6
176
     1
 90
        2
176
     1
 62
     7
176
     1
 90
        3
176
     1
 90
        0
176
     1
 90
        0
176
     1
290
     0
176
     1
 90
       13
176
     1
 40
0.0
176
     1
 90
        0
176
     1
290
     0
176
     1
290
     1
176
     1
290
     1
176
     1
290
     0
176
     1
290
     0
176
     1
290
     0
176
     1
290
     0
176
     1
290
     0
176
     1
290
     0
176
     1
 90
       50
176
     1
 40
0.0
176
     1
 40
1.0
176
     1
 90
        0
176
     1
 62
    18
420
        0
176
     1
 90
       50
176
     1
 90
        3
176
     1
 62
     5
420
      255
176
     1
290
     0
176
     1
 90
       50
176
     1
 90
       50
176
     1
 90
       50
176
     1
290
     0
176
     1
 90
       50
176
     1
 62
   256
176
     0
 40
1.0
176
     0
 90
        2
176
     1
  1
strokes_ogs.tif
176
     1
290
     0
176
     1
 40
1.0
176
     1
 40
1.0
176
     1
  0
VISUALSTYLE
  5
3E
102
{ACAD_REACTORS
330
29
102
}
330
29
100
AcDbVisualStyle
  2
Shaded
 70
    27
177
     3
291
     0
 70
    58
 90
        2
176
     1
 90
        2
176
     1
 90
        1
176
     1
 90
        2
176
     1
 40
0.6
176
     1
 40
30.0
176
     1
 62
     7
420
 16777215
176
     1
 90
        0
176
     1
 90
        4
176
     1
 62
     7
176
     1
 62
   257
176
     1
 90
        1
176
     1
 90
        1
176
     1
 40
1.0
176
     1
 90
        8
176
     1
 62
   257
176
     1
 40
1.0
176
     1
 90
        1
176
     1
 90
        6
176
     1
 90
        2
176
     1
 62
     8
420
  7895160
176
     1
 90
        3
176
     1
 90
        0
176
     1
 90
        0
176
     1
290
     0
176
     1
 90
        5
176
     1
 40
0.0
176
     1
 90
        0
176
     1
290
     0
176
     1
290
     1
176
     1
290
     1
176
     1
290
     0
176
     1
290
     0
176
     1
290
     0
176
     1
290
     0
176
     1
290
     0
176
     1
290
     0
176
     1
 90
       50
176
     1
 40
0.0
176
     1
 40
1.0
176
     1
 90
        0
176
     1
 62
    18
420
        0
176
     1
 90
       50
176
     1
 90
        3
176
     1
 62
     5
420
      255
176
     1
290
     0
176
     1
 90
       50
176
     1
 90
       50
176
     1
 90
       50
176
     1
290
     0
176
     1
 90
       50
176
     1
 62
   256
176
     0
 40
1.0
176
     0
 90
        2
176
     1
  1
strokes_ogs.tif
176
     1
290
     0
176
     1
 40
1.0
176
     1
 40
1.0
176
     1
  0
VISUALSTYLE
  5
3D
102
{ACAD_REACTORS
330
29
102
}
330
29
100
AcDbVisualStyle
  2
Shaded with edges
 70
    26
177
     3
291
     0
 70
    58
 90
        2
176
     1
 90
        2
176
     1
 90
        1
176
     1
 90
        2
176
     1
 40
0.6
176
     1
 40
30.0
176
     1
 62
     7
420
 16777215
176
     1
 90
        1
176
     1
 90
        2
176
     1
 62
     7
176
     1
 62
   257
176
     1
 90
        2
176
     1
 90
        1
176
     1
 40
1.0
176
     1
 90
        8
176
     1
 62
   257
176
     1
 40
1.0
176
     1
 90
        1
176
     1
 90
        6
176
     1
 90
        2
176
     1
 62
     7
176
     1
 90
        3
176
     1
 90
        0
176
     1
 90
        0
176
     1
290
     0
176
     1
 90
        5
176
     1
 40
0.0
176
     1
 90
        0
176
     1
290
     0
176
     1
290
     1
176
     1
290
     1
176
     1
290
     0
176
     1
290
     0
176
     1
290
     0
176
     1
290
     0
176
     1
290
     0
176
     1
290
     0
176
     1
 90
       50
176
     1
 40
0.0
176
     1
 40
1.0
176
     1
 90
        0
176
     1
 62
    18
420
        0
176
     1
 90
       50
176
     1
 90
        3
176
     1
 62
     5
420
      255
176
     1
290
     0
176
     1
 90
       50
176
     1
 90
       50
176
     1
 90
       50
176
     1
290
     0
176
     1
 90
       50
176
     1
 62
   256
176
     0
 40
1.0
176
     0
 90
        2
176
     1
  1
strokes_ogs.tif
176
     1
290
     0
176
     1
 40
1.0
176
     1
 40
1.0
176
     1
  0
VISUALSTYLE
  5
3A
102
{ACAD_REACTORS
330
29
102
}
330
29
100
AcDbVisualStyle
  2
Shades of Gray
 70
    23
177
     3
291
     0
 70
    58
 90
        2
176
     1
 90
        2
176
     1
 90
        3
176
     1
 90
        0
176
     1
 40
0.6
176
     1
 40
30.0
176
     1
 62
     7
420
 16777215
176
     1
 90
        2
176
     1
 90
        2
176
     1
 62
     7
176
     1
 62
     7
176
     1
 90
        1
176
     1
 90
        1
176
     1
 40
40.0
176
     1
 90
        8
176
     1
 62
     7
176
     1
 40
1.0
176
     1
 90
        1
176
     1
 90
        6
176
     1
 90
        2
176
     1
 62
     7
176
     1
 90
        3
176
     1
 90
        0
176
     1
 90
        0
176
     1
290
     0
176
     1
 90
        1
176
     1
 40
0.0
176
     1
 90
        0
176
     1
290
     0
176
     1
290
     1
176
     1
290
     1
176
     1
290
     0
176
     1
290
     0
176
     1
290
     0
176
     1
290
     0
176
     1
290
     0
176
     1
290
     0
176
     1
 90
       50
176
     1
 40
0.0
176
     1
 40
1.0
176
     1
 90
        0
176
     1
 62
    18
420
        0
176
     1
 90
       50
176
     1
 90
        3
176
     1
 62
     5
420
      255
176
     1
290
     0
176
     1
 90
       50
176
     1
 90
       50
176
     1
 90
       50
176
     1
290
     0
176
     1
 90
       50
176
     1
 62
   256
176
     0
 40
1.0
176
     0
 90
        2
176
     1
  1
strokes_ogs.tif
176
     1
290
     0
176
     1
 40
1.0
176
     1
 40
1.0
176
     1
  0
VISUALSTYLE
  5
3B
102
{ACAD_REACTORS
330
29
102
}
330
29
100
AcDbVisualStyle
  2
Sketchy
 70
    24
177
     3
291
     0
 70
    58
 90
        1
176
     1
 90
        2
176
     1
 90
        2
176
     1
 90
        0
176
     1
 40
0.6
176
     1
 40
30.0
176
     1
 62
     7
420
 16777215
176
     1
 90
        2
176
     1
 90
        2
176
     1
 62
     7
176
     1
 62
     7
176
     1
 90
        1
176
     1
 90
        1
176
     1
 40
40.0
176
     1
 90
       11
176
     1
 62
     7
176
     1
 40
1.0
176
     1
 90
        1
176
     1
 90
        6
176
     1
 90
        2
176
     1
 62
     7
176
     1
 90
        6
176
     1
 90
        0
176
     1
 90
        0
176
     1
290
     0
176
     1
 90
        1
176
     1
 40
0.0
176
     1
 90
        0
176
     1
290
     0
176
     1
290
     1
176
     1
290
     1
176
     1
290
     0
176
     1
290
     0
176
     1
290
     0
176
     1
290
     0
176
     1
290
     0
176
     1
290
     0
176
     1
 90
       50
176
     1
 40
0.0
176
     1
 40
1.0
176
     1
 90
        0
176
     1
 62
    18
420
        0
176
     1
 90
       50
176
     1
 90
        3
176
     1
 62
     5
420
      255
176
     1
290
     0
176
     1
 90
       50
176
     1
 90
       50
176
     1
 90
       50
176
     1
290
     0
176
     1
 90
       50
176
     1
 62
   256
176
     0
 40
1.0
176
     0
 90
        2
176
     1
  1
strokes_ogs.tif
176
     1
290
     0
176
     1
 40
1.0
176
     1
 40
1.0
176
     1
  0
VISUALSTYLE
  5
36
102
{ACAD_REACTORS
330
29
102
}
330
29
100
AcDbVisualStyle
  2
Thicken
 70
    13
177
     3
291
     1
 70
    58
 90
        2
176
     1
 90
        2
176
     1
 90
        0
176
     1
 90
        0
176
     1
 40
0.6
176
     1
 40
30.0
176
     1
 62
     7
420
 16777215
176
     1
 90
        1
176
     1
 90
        4
176
     1
 62
     7
176
     1
 62
   257
176
     1
 90
        1
176
     1
 90
        1
176
     1
 40
1.0
176
     1
 90
       12
176
     1
 62
     7
176
     1
 40
1.0
176
     1
 90
        1
176
     1
 90
        6
176
     1
 90
        2
176
     1
 62
     7
176
     1
 90
        5
176
     1
 90
        0
176
     1
 90
        0
176
     1
290
     0
176
     1
 90
        1
176
     1
 40
0.0
176
     1
 90
        0
176
     1
290
     0
176
     1
290
     1
176
     1
290
     1
176
     1
290
     0
176
     1
290
     0
176
     1
290
     0
176
     1
290
     0
176
     1
290
     0
176
     1
290
     0
176
     1
 90
       50
176
     1
 40
0.0
176
     1
 40
1.0
176
     1
 90
        0
176
     1
 62
    18
420
        0
176
     1
 90
       50
176
     1
 90
        3
176
     1
 62
     5
420
      255
176
     1
290
     0
176
     1
 90
       50
176
     1
 90
       50
176
     1
 90
       50
176
     1
290
     0
176
     1
 90
       50
176
     1
 62
   256
176
     0
 40
1.0
176
     0
 90
        2
176
     1
  1
strokes_ogs.tif
176
     1
290
     0
176
     1
 40
1.0
176
     1
 40
1.0
176
     1
  0
VISUALSTYLE
  5
30
102
{ACAD_REACTORS
330
29
102
}
330
29
100
AcDbVisualStyle
  2
Wireframe
 70
     5
177
     3
291
     0
 70
    58
 90
        0
176
     1
 90
        2
176
     1
 90
        0
176
     1
 90
        0
176
     1
 40
0.6
176
     1
 40
30.0
176
     1
 62
     7
420
 16777215
176
     1
 90
        1
176
     1
 90
        4
176
     1
 62
     7
176
     1
 62
   257
176
     1
 90
        1
176
     1
 90
        1
176
     1
 40
1.0
176
     1
 90
        0
176
     1
 62
   257
176
     1
 40
1.0
176
     1
 90
        1
176
     1
 90
        6
176
     1
 90
        2
176
     1
 62
     7
176
     1
 90
        3
176
     1
 90
        0
176
     1
 90
        0
176
     1
290
     0
176
     1
 90
        1
176
     1
 40
0.0
176
     1
 90
        0
176
     1
290
     0
176
     1
290
     1
176
     1
290
     1
176
     1
290
     0
176
     1
290
     0
176
     1
290
     0
176
     1
290
     0
176
     1
290
     0
176
     1
290
     0
176
     1
 90
       50
176
     1
 40
0.0
176
     1
 40
1.0
176
     1
 90
        0
176
     1
 62
    18
420
        0
176
     1
 90
       50
176
     1
 90
        3
176
     1
 62
     5
420
      255
176
     1
290
     0
176
     1
 90
       50
176
     1
 90
       50
176
     1
 90
       50
176
     1
290
     0
176
     1
 90
       50
176
     1
 62
   256
176
     0
 40
1.0
176
     0
 90
        2
176
     1
  1
strokes_ogs.tif
176
     1
290
     0
176
     1
 40
1.0
176
     1
 40
1.0
176
     1
  0
VISUALSTYLE
  5
3C
102
{ACAD_REACTORS
330
29
102
}
330
29
100
AcDbVisualStyle
  2
X-Ray
 70
    25
177
     3
291
     0
 70
    58
 90
        2
176
     1
 90
        2
176
     1
 90
        1
176
     1
 90
        1
176
     1
 40
0.5
176
     1
 40
30.0
176
     1
 62
     7
420
 16777215
176
     1
 90
        1
176
     1
 90
        0
176
     1
 62
     7
176
     1
 62
   257
176
     1
 90
        1
176
     1
 90
        1
176
     1
 40
1.0
176
     1
 90
        8
176
     1
 62
     7
176
     1
 40
1.0
176
     1
 90
        1
176
     1
 90
        6
176
     1
 90
        2
176
     1
 62
     7
176
     1
 90
        3
176
     1
 90
        0
176
     1
 90
        0
176
     1
290
     0
176
     1
 90
       13
176
     1
 40
0.0
176
     1
 90
        0
176
     1
290
     0
176
     1
290
     1
176
     1
290
     1
176
     1
290
     0
176
     1
290
     0
176
     1
290
     0
176
     1
290
     0
176
     1
290
     0
176
     1
290
     0
176
     1
 90
       50
176
     1
 40
0.0
176
     1
 40
1.0
176
     1
 90
        0
176
     1
 62
    18
420
        0
176
     1
 90
       50
176
     1
 90
        3
176
     1
 62
     5
420
      255
176
     1
290
     0
176
     1
 90
       50
176
     1
 90
       50
176
     1
 90
       50
176
     1
290
     0
176
     1
 90
       50
176
     1
 62
   256
176
     0
 40
1.0
176
     0
 90
        2
176
     1
  1
strokes_ogs.tif
176
     1
290
     0
176
     1
 40
1.0
176
     1
 40
1.0
176
     1
  0
DICTIONARYVAR
  5
111
102
{ACAD_REACTORS
330
10C
102
}
330
10C
100
DictionaryVariables
280
     0
  1
1:1
  0
DICTIONARYVAR
  5
10E
102
{ACAD_REACTORS
330
10C
102
}
330
10C
100
DictionaryVariables
280
     0
  1
STANDARD
  0
DICTIONARYVAR
  5
10D
102
{ACAD_REACTORS
330
10C
102
}
330
10C
100
DictionaryVariables
280
     0
  1
STANDARD
  0
DICTIONARYVAR
  5
10F
102
{ACAD_REACTORS
330
10C
102
}
330
10C
100
DictionaryVariables
280
     0
  1
Imperial24
  0
DICTIONARYVAR
  5
110
102
{ACAD_REACTORS
330
10C
102
}
330
10C
100
DictionaryVariables
280
     0
  1
Imperial24
  0
DICTIONARY
  5
1A
330
19
100
AcDbDictionary
280
     1
281
     1
  3
BUMPTILE
360
1C
  3
DIFFUSETILE
360
1B
  3
OPACITYTILE
360
1F
  3
REFLECTIONTILE
360
1E
  3
REFRACTIONTILE
360
20
  3
SPECULARTILE
360
1D
  0
DICTIONARY
  5
12
330
11
100
AcDbDictionary
280
     1
281
     1
  3
BUMPTILE
360
14
  3
DIFFUSETILE
360
13
  3
OPACITYTILE
360
17
  3
REFLECTIONTILE
360
16
  3
REFRACTIONTILE
360
18
  3
SPECULARTILE
360
15
  0
DICTIONARY
  5
22
330
21
100
AcDbDictionary
280
     1
281
     1
  3
BUMPTILE
360
24
  3
DIFFUSETILE
360
23
  3
OPACITYTILE
360
27
  3
REFLECTIONTILE
360
26
  3
REFRACTIONTILE
360
28
  3
SPECULARTILE
360
25
  0
DICTIONARY
  5
112
330
65
100
AcDbDictionary
280
     1
281
     1
  3
ACAD_ROUNDTRIP_2008_TABLESTYLE_CELLSTYLEMAP
360
113
  0
XRECORD
  5
1C
102
{ACAD_REACTORS
330
1A
102
}
330
1A
100
AcDbXrecord
280
     1
270
     1
271
     1
  0
XRECORD
  5
1B
102
{ACAD_REACTORS
330
1A
102
}
330
1A
100
AcDbXrecord
280
     1
270
     1
271
     1
  0
XRECORD
  5
1F
102
{ACAD_REACTORS
330
1A
102
}
330
1A
100
AcDbXrecord
280
     1
270
     1
271
     1
  0
XRECORD
  5
1E
102
{ACAD_REACTORS
330
1A
102
}
330
1A
100
AcDbXrecord
280
     1
270
     1
271
     1
  0
XRECORD
  5
20
102
{ACAD_REACTORS
330
1A
102
}
330
1A
100
AcDbXrecord
280
     1
270
     1
271
     1
  0
XRECORD
  5
1D
102
{ACAD_REACTORS
330
1A
102
}
330
1A
100
AcDbXrecord
280
     1
270
     1
271
     1
  0
XRECORD
  5
14
102
{ACAD_REACTORS
330
12
102
}
330
12
100
AcDbXrecord
280
     1
270
     1
271
     1
  0
XRECORD
  5
13
102
{ACAD_REACTORS
330
12
102
}
330
12
100
AcDbXrecord
280
     1
270
     1
271
     1
  0
XRECORD
  5
17
102
{ACAD_REACTORS
330
12
102
}
330
12
100
AcDbXrecord
280
     1
270
     1
271
     1
  0
XRECORD
  5
16
102
{ACAD_REACTORS
330
12
102
}
330
12
100
AcDbXrecord
280
     1
270
     1
271
     1
  0
XRECORD
  5
18
102
{ACAD_REACTORS
330
12
102
}
330
12
100
AcDbXrecord
280
     1
270
     1
271
     1
  0
XRECORD
  5
15
102
{ACAD_REACTORS
330
12
102
}
330
12
100
AcDbXrecord
280
     1
270
     1
271
     1
  0
XRECORD
  5
24
102
{ACAD_REACTORS
330
22
102
}
330
22
100
AcDbXrecord
280
     1
270
     1
271
     1
  0
XRECORD
  5
23
102
{ACAD_REACTORS
330
22
102
}
330
22
100
AcDbXrecord
280
     1
270
     1
271
     1
  0
XRECORD
  5
27
102
{ACAD_REACTORS
330
22
102
}
330
22
100
AcDbXrecord
280
     1
270
     1
271
     1
  0
XRECORD
  5
26
102
{ACAD_REACTORS
330
22
102
}
330
22
100
AcDbXrecord
280
     1
270
     1
271
     1
  0
XRECORD
  5
28
102
{ACAD_REACTORS
330
22
102
}
330
22
100
AcDbXrecord
280
     1
270
     1
271
     1
  0
XRECORD
  5
25
102
{ACAD_REACTORS
330
22
102
}
330
22
100
AcDbXrecord
280
     1
270
     1
271
     1
  0
CELLSTYLEMAP
  5
113
102
{ACAD_REACTORS
330
112
102
}
330
112
100
AcDbCellStyleMap
 90
        3
300
CELLSTYLE
  1
TABLEFORMAT_BEGIN
 90
        5
170
     1
 91
        0
 92
    32768
 62
   257
 93
        1
300
CONTENTFORMAT
  1
CONTENTFORMAT_BEGIN
 90
        0
 91
        0
 92
      512
 93
        0
300

 40
0.0
140
1.0
 94
        5
 62
     0
340
55
144
0.25
309
CONTENTFORMAT_END
171
     0
 94
        0
309
TABLEFORMAT_END
  1
CELLSTYLE_BEGIN
 90
        1
 91
        1
300
_TITLE
309
CELLSTYLE_END
300
CELLSTYLE
  1
TABLEFORMAT_BEGIN
 90
        5
170
     1
 91
        0
 92
        0
 62
   257
 93
        1
300
CONTENTFORMAT
  1
CONTENTFORMAT_BEGIN
 90
        0
 91
        0
 92
      512
 93
        0
300

 40
0.0
140
1.0
 94
        5
 62
     0
340
55
144
0.18
309
CONTENTFORMAT_END
171
     0
 94
        0
309
TABLEFORMAT_END
  1
CELLSTYLE_BEGIN
 90
        2
 91
        1
300
_HEADER
309
CELLSTYLE_END
300
CELLSTYLE
  1
TABLEFORMAT_BEGIN
 90
        5
170
     1
 91
        0
 92
        0
 62
   257
 93
        1
300
CONTENTFORMAT
  1
CONTENTFORMAT_BEGIN
 90
        0
 91
        0
 92
      512
 93
        0
300

 40
0.0
140
1.0
 94
        2
 62
     0
340
55
144
0.18
309
CONTENTFORMAT_END
171
     0
 94
        0
309
TABLEFORMAT_END
  1
CELLSTYLE_BEGIN
 90
        3
 91
        2
300
_DATA
309
CELLSTYLE_END
  0
ENDSEC
  0
EOF
